<svg width="1920" height="700" viewBox="0 0 1920 700" fill="none" xmlns="http://www.w3.org/2000/svg">
<g clip-path="url(#clip0_3640_1067)">
<rect width="1920" height="700" fill="#173F5D"/>
<mask id="mask0_3640_1067" style="mask-type:alpha" maskUnits="userSpaceOnUse" x="0" y="0" width="1920" height="700">
<rect width="1920" height="700" fill="#173F5D"/>
</mask>
<g mask="url(#mask0_3640_1067)">
<g opacity="0.2">
<path opacity="0.4" d="M635.164 490.219C635.511 491.607 635.859 492.648 636.206 494.036L638.985 504.795C638.637 502.366 638.637 502.366 635.164 490.219Z" fill="#73A6C8"/>
<path opacity="0.4" d="M643.839 523.881C643.839 523.187 643.492 522.493 643.492 521.799L644.187 524.922L644.882 527.699L643.839 523.881Z" fill="#73A6C8"/>
<path opacity="0.4" d="M642.808 697.406C642.46 698.447 642.113 699.836 642.113 700.877C638.64 712.329 633.429 727.253 628.914 738.358C628.914 737.664 629.261 736.97 629.261 736.623C633.43 724.823 639.682 709.553 642.808 697.406Z" fill="#73A6C8"/>
<path opacity="0.4" d="M364.233 219.519C363.886 219.172 363.538 219.172 362.844 219.172C371.18 221.948 381.947 225.419 390.284 228.542C391.673 228.889 393.062 229.583 394.104 229.93C385.421 226.807 373.611 222.295 364.233 219.519Z" fill="#73A6C8"/>
<path opacity="0.4" d="M95.0486 230.623C100.606 228.888 100.606 228.888 108.248 227.152C107.553 227.499 106.858 227.846 105.816 228.193C104.079 228.541 101.995 229.235 100.259 229.582C97.8273 230.276 94.7012 231.317 92.6172 232.011C93.6592 231.317 94.3539 230.97 95.0486 230.623Z" fill="#73A6C8"/>
<path opacity="0.4" d="M25.935 266.371C53.3749 250.059 62.4058 245.201 100.266 230.277C86.3723 236.524 71.784 241.73 58.2377 248.324C47.4701 253.53 33.5765 261.859 23.1562 268.106C23.8509 267.759 24.893 267.065 25.935 266.371Z" fill="#73A6C8"/>
<path opacity="0.4" d="M231.559 202.166C231.906 202.166 232.601 202.166 232.948 202.166C197.52 204.595 169.385 206.331 121.452 222.642C121.105 222.642 120.41 222.642 120.062 222.989C150.976 212.925 175.29 204.942 231.559 202.166Z" fill="#73A6C8"/>
<path opacity="0.4" d="M164.869 222.641C164.522 222.988 164.174 223.335 163.48 223.335C146.113 224.723 128.398 225.07 111.031 226.805C113.115 226.111 115.547 225.417 164.869 222.641Z" fill="#73A6C8"/>
<path opacity="0.4" d="M96.0908 232.709H96.4381C59.9673 250.409 18.6337 270.191 -32.0781 323.983C-7.06956 298.302 26.9699 263.25 96.0908 232.709Z" fill="#73A6C8"/>
<path opacity="0.4" d="M101.645 230.624C102.339 230.277 102.687 230.277 103.381 229.93C81.4989 242.076 40.5127 264.288 49.8909 315.651C49.1962 316.345 48.8489 316.345 48.1542 317.04C45.7228 296.217 41.5547 261.164 101.645 230.624Z" fill="#73A6C8"/>
<path opacity="0.4" d="M42.5981 322.939C42.2508 323.634 41.9034 323.981 41.5561 324.675C-2.90356 329.186 -17.4919 331.269 -38.6797 334.739C-37.2903 333.698 -35.2063 330.922 42.5981 322.939Z" fill="#73A6C8"/>
<path opacity="0.4" d="M40.8704 333.352C41.2178 333.352 41.5651 333.699 41.5651 333.699C-3.58923 388.88 -34.1552 433.302 -66.8053 510.695C-67.1527 510.695 -67.5 510.348 -67.5 510.348C-43.1861 451.002 -17.8302 403.109 40.8704 333.352Z" fill="#73A6C8"/>
<path opacity="0.4" d="M48.4968 333.001C48.8441 332.654 49.5388 332.307 50.2335 332.307C46.7601 388.529 56.4856 443.71 118.66 557.543C117.965 557.89 117.27 558.584 116.576 558.931C67.9479 468.351 41.55 402.411 48.4968 333.001Z" fill="#73A6C8"/>
<path opacity="0.4" d="M-64.3828 529.09C-64.3828 528.742 -64.0355 528.048 -63.6881 526.66C-36.5955 534.642 4.39074 546.442 111.024 567.265C111.024 567.959 110.677 568.653 110.677 569.347C41.5562 557.548 -27.2173 540.542 -64.3828 529.09Z" fill="#73A6C8"/>
<path opacity="0.4" d="M158.601 228.193C130.814 246.24 101.984 264.981 59.9561 312.874C59.6087 312.874 59.2614 312.527 58.9141 312.527C82.5333 286.845 111.71 255.263 158.601 228.193Z" fill="#73A6C8"/>
<path opacity="0.4" d="M205.844 286.496C205.844 286.843 205.844 287.537 205.844 287.884C158.258 298.296 108.936 308.707 59.9609 321.201C60.3083 320.854 60.3083 320.16 60.6556 319.813C81.8434 314.607 104.073 308.707 205.844 286.496Z" fill="#73A6C8"/>
<path opacity="0.4" d="M111.718 579.758C112.065 580.452 112.412 581.146 112.76 581.493C47.1121 632.857 14.1146 658.538 -30.6924 708.861C-31.0397 708.514 -31.387 707.82 -31.7344 707.126C-11.9359 683.873 15.504 651.944 111.718 579.758Z" fill="#73A6C8"/>
<path opacity="0.4" d="M166.597 226.114C166.944 225.767 167.639 225.767 167.986 225.42C166.249 239.996 171.807 251.796 208.972 279.56C208.625 280.254 208.277 280.254 207.93 280.948C173.543 254.572 164.165 242.425 166.597 226.114Z" fill="#73A6C8"/>
<path opacity="0.4" d="M239.201 201.818C239.896 201.818 240.591 201.818 241.633 201.818C191.616 202.86 166.954 209.453 168.691 220.906C167.996 221.253 167.649 221.253 166.954 221.6C165.912 209.801 189.879 203.207 239.201 201.818C238.854 201.818 238.854 201.818 239.201 201.818Z" fill="#73A6C8"/>
<path opacity="0.4" d="M246.142 201.818L246.49 202.165C244.753 202.86 243.364 203.554 235.375 205.636C215.229 211.189 195.083 216.047 174.938 221.6C175.98 220.906 175.98 220.906 189.526 217.436C190.915 217.089 197.167 215.353 222.523 208.759C243.016 203.554 244.753 202.86 246.49 202.165C246.142 201.818 246.142 201.818 246.142 201.818Z" fill="#73A6C8"/>
<path opacity="0.4" d="M462.891 264.635C463.585 264.982 464.28 265.676 464.975 266.023C467.059 267.411 469.49 269.493 470.879 271.923C471.574 273.311 471.227 275.393 471.227 277.129C470.532 276.782 469.837 276.087 469.143 275.74C469.49 274.005 469.49 271.229 468.448 269.841C467.406 267.758 464.627 266.023 462.891 264.635Z" fill="#73A6C8"/>
<path opacity="0.4" d="M247.186 201.818C251.007 204.595 253.439 206.33 247.534 223.683C243.018 236.871 230.861 259.082 221.136 277.129C220.788 277.129 220.441 276.781 220.094 276.781C246.144 227.153 256.217 208.759 247.186 201.818Z" fill="#73A6C8"/>
<path opacity="0.4" d="M211.409 294.484C211.757 294.484 212.451 294.831 212.799 294.831C174.591 400.335 155.487 453.087 130.132 556.161C129.784 556.161 129.09 555.814 128.742 555.814C140.204 502.715 158.266 434.346 211.409 294.484Z" fill="#73A6C8"/>
<path opacity="0.4" d="M295.452 389.922C295.8 390.269 296.494 390.616 296.842 390.963C246.477 450.309 189.166 503.061 136.717 560.324C136.37 559.977 135.675 559.283 135.328 558.936C186.735 500.978 244.046 448.227 295.452 389.922Z" fill="#73A6C8"/>
<path opacity="0.4" d="M126.312 587.74C127.007 587.74 127.355 587.74 128.397 587.393C134.649 628.345 139.511 660.62 153.058 720.66C152.363 720.66 151.668 720.66 151.321 721.007C144.374 691.508 135.691 655.068 126.312 587.74Z" fill="#73A6C8"/>
<path opacity="0.4" d="M140.195 573.509C140.195 572.815 140.195 571.774 140.195 571.08C224.947 575.592 309.35 579.756 394.102 584.268C394.102 584.962 394.102 586.003 394.102 587.044C309.698 582.186 224.947 578.368 140.195 573.509Z" fill="#73A6C8"/>
<path opacity="0.4" d="M395.5 593.639C395.847 594.333 396.195 595.374 396.542 596.068C322.211 643.614 244.407 684.219 168.686 728.989C168.339 728.295 167.644 727.601 167.297 726.906C243.365 682.137 321.516 641.532 395.5 593.639Z" fill="#73A6C8"/>
<path opacity="0.4" d="M220.789 293.092C221.484 292.745 221.831 292.398 222.178 292.051C241.282 314.956 246.84 321.55 295.815 370.831C295.12 371.526 294.773 371.526 294.425 372.22C250.313 327.797 238.503 315.303 220.789 293.092Z" fill="#73A6C8"/>
<path opacity="0.4" d="M265.59 211.535C265.937 211.535 265.937 211.882 266.284 211.882C266.632 225.417 262.463 236.523 223.214 278.169C222.867 277.822 222.519 277.475 222.172 277.128C250.307 247.281 267.326 227.5 265.59 211.535Z" fill="#73A6C8"/>
<path opacity="0.4" d="M345.126 262.207C345.473 262.554 345.821 262.901 346.168 263.248C318.381 269.842 288.162 275.048 225.641 284.765C225.641 284.418 225.641 283.724 225.641 283.377C272.184 275.742 308.655 270.189 345.126 262.207Z" fill="#73A6C8"/>
<path opacity="0.4" d="M330.547 217.434C375.007 236.868 422.592 262.55 472.262 343.76C471.915 343.76 471.567 343.76 471.567 343.76C438.223 293.091 404.878 248.321 330.547 217.434Z" fill="#73A6C8"/>
<path opacity="0.4" d="M472.258 282.33C472.605 282.677 496.572 302.806 481.636 349.658C480.941 348.964 480.594 348.617 479.899 347.923C485.457 328.488 490.667 310.441 472.258 282.33Z" fill="#73A6C8"/>
<path opacity="0.4" d="M324.641 216.047C332.629 218.476 343.397 228.888 344.092 229.929C352.081 241.382 352.428 243.117 353.123 256.652C352.428 256.305 352.081 255.958 351.386 255.611C349.997 235.482 346.87 229.235 324.641 216.047Z" fill="#73A6C8"/>
<path opacity="0.4" d="M270.109 211.881C291.645 222.987 308.664 232.704 342.356 254.568C342.356 254.915 342.009 254.915 342.009 255.262C311.096 235.133 295.465 225.416 270.109 211.881Z" fill="#73A6C8"/>
<path opacity="0.4" d="M409.047 603.009C409.742 603.009 410.089 603.009 411.478 602.662C414.604 651.943 416.341 685.954 412.52 741.83C412.173 741.83 411.478 741.83 410.784 741.83C412.52 692.548 413.562 662.702 409.047 603.009Z" fill="#73A6C8"/>
<path opacity="0.4" d="M246.48 201.818H246.133C250.301 202.165 267.668 203.554 312.822 211.883C313.517 212.23 313.864 212.23 314.559 212.577C268.363 203.901 250.648 202.165 246.48 201.818Z" fill="#73A6C8"/>
<path opacity="0.4" d="M247.873 202.163C247.873 201.816 247.526 201.816 247.873 202.163C251.694 203.204 256.904 205.286 260.725 206.674C256.557 205.286 251.694 203.204 247.873 202.163Z" fill="#73A6C8"/>
<path opacity="0.4" d="M268.726 209.8C268.379 209.8 268.379 209.453 268.031 209.453C294.082 211.535 300.681 211.882 315.617 213.271C316.312 213.618 317.006 213.618 317.354 213.965C303.46 212.23 295.471 211.535 268.726 209.8Z" fill="#73A6C8"/>
<path opacity="0.4" d="M361.461 268.108C361.461 267.761 361.461 267.414 361.808 267.414C407.31 297.955 426.761 312.531 467.4 345.501C467.4 345.848 467.053 346.195 467.053 346.542C426.066 313.225 406.268 298.649 361.461 268.108Z" fill="#73A6C8"/>
<path opacity="0.4" d="M351.385 267.758C351.732 268.105 352.079 268.105 352.427 268.452C352.079 287.193 351.385 312.527 312.135 371.873C311.44 371.179 311.093 371.179 310.398 370.485C328.113 342.721 352.427 304.545 351.385 267.758Z" fill="#73A6C8"/>
<path opacity="0.4" d="M519.849 565.18C519.849 566.221 520.197 566.568 520.197 567.956C483.031 575.244 471.222 577.326 422.941 585.656C422.941 584.268 422.941 584.268 422.594 582.879C471.222 574.55 483.031 572.468 519.849 565.18Z" fill="#73A6C8"/>
<path opacity="0.4" d="M310.756 393.389C311.451 393.042 312.145 393.042 312.493 392.695C343.406 447.182 372.235 498.546 403.843 571.08C403.496 571.427 402.801 571.427 402.107 571.774C371.541 506.181 360.078 481.54 310.756 393.389Z" fill="#73A6C8"/>
<path opacity="0.4" d="M469.834 355.908C470.182 356.255 470.529 356.949 470.876 357.296C456.635 360.42 426.764 367.014 317.699 380.549C317.699 380.202 317.352 379.508 317.352 378.814C456.983 358.338 456.983 358.338 469.834 355.908Z" fill="#73A6C8"/>
<path opacity="0.4" d="M478.162 365.281C478.509 365.628 478.857 365.628 479.204 365.975C481.983 417.686 472.605 470.438 417.725 573.859C417.03 573.512 416.335 572.818 415.641 572.471C448.638 508.266 481.288 439.55 478.162 365.281Z" fill="#73A6C8"/>
<path opacity="0.4" d="M363.203 219.172C415.304 234.442 450.386 261.859 461.848 270.883C461.501 270.883 461.501 270.535 461.153 270.535C461.153 270.535 460.806 270.188 460.459 270.188C454.207 267.065 447.26 260.471 441.702 256.306C429.893 247.283 406.273 233.748 363.203 219.172Z" fill="#73A6C8"/>
<path opacity="0.4" d="M330.198 216.394C329.851 216.394 329.504 216.047 329.156 216.047C381.257 232.358 410.087 244.505 458.02 270.881C458.367 271.228 458.714 271.575 459.062 271.922C420.507 250.752 390.983 235.482 330.198 216.394Z" fill="#73A6C8"/>
<path opacity="0.4" d="M488.586 365.625C488.586 365.278 488.933 364.931 488.933 364.584C521.931 396.86 543.813 418.724 576.116 463.494C576.116 463.841 575.769 464.188 575.769 464.535C549.718 430.177 533.74 409.701 488.586 365.625Z" fill="#73A6C8"/>
<path opacity="0.4" d="M483.375 367.363C483.722 367.363 484.07 367.363 484.417 367.363C499.353 399.292 524.361 452.391 530.961 548.177C530.613 548.177 530.266 548.177 529.919 548.177C523.319 491.261 517.067 437.468 483.375 367.363Z" fill="#73A6C8"/>
<path opacity="0.4" d="M524.362 576.633C524.709 576.98 525.404 577.674 525.751 578.021C508.037 616.891 487.543 660.619 420.854 744.953C420.507 744.606 419.812 743.912 419.117 743.565C471.913 675.89 498.311 633.896 524.362 576.633Z" fill="#73A6C8"/>
<path opacity="0.4" d="M577.505 695.676C577.505 696.37 577.505 697.064 577.505 697.758C549.023 711.64 517.415 725.175 423.633 753.98C423.633 753.286 423.633 752.592 423.633 752.245C520.888 719.969 533.393 715.805 577.505 695.676Z" fill="#73A6C8"/>
<path opacity="0.4" d="M579.935 484.318C580.629 485.36 580.629 485.36 581.324 486.401C569.514 512.082 565.346 521.453 539.296 555.811C538.948 554.77 538.601 554.423 537.906 553.729C558.399 525.965 566.041 515.9 579.935 484.318Z" fill="#73A6C8"/>
<path opacity="0.4" d="M537.906 577.677C538.601 576.983 538.601 576.636 538.948 576.289C554.926 605.788 571.598 636.329 583.408 679.71C582.713 680.404 582.713 680.404 582.019 681.446C573.335 652.64 563.957 622.794 537.906 577.677Z" fill="#73A6C8"/>
<path opacity="0.4" d="M587.227 387.49C615.709 435.383 621.613 448.224 637.938 500.976C620.919 446.836 615.361 434.342 587.227 387.49Z" fill="#73A6C8"/>
<path opacity="0.4" d="M480.601 284.766C480.254 284.419 479.906 284.072 479.906 283.725C507.346 302.465 541.038 325.371 571.604 364.588C571.952 364.935 571.952 365.282 572.299 365.629C553.195 343.417 531.66 318.083 480.601 284.766C480.601 285.113 480.601 285.113 480.601 284.766Z" fill="#73A6C8"/>
<path opacity="0.4" d="M479.211 286.496C479.906 286.843 553.195 339.942 581.677 462.451C581.329 462.451 580.982 462.104 580.982 462.104C568.13 415.252 550.416 351.048 479.211 286.496Z" fill="#73A6C8"/>
<path opacity="0.4" d="M582.375 380.547C594.879 398.246 605.994 428.093 588.28 470.086C587.585 469.045 587.585 468.698 586.89 468.004C594.879 445.793 604.952 418.723 582.375 380.547Z" fill="#73A6C8"/>
<path opacity="0.4" d="M326.375 209.801C327.417 210.148 328.459 210.148 329.501 210.495L343.395 213.618C341.658 213.271 341.658 213.271 326.375 209.801Z" fill="#73A6C8"/>
<path opacity="0.4" d="M269.07 202.512C270.112 202.512 270.807 202.512 271.849 202.512C299.984 204.594 313.877 207.717 319.782 212.576C319.087 212.229 318.393 212.229 317.698 211.882C317.003 211.535 315.961 210.841 315.267 210.147C314.572 209.8 310.751 207.717 302.415 205.982C290.605 203.9 277.059 202.859 269.07 202.512Z" fill="#73A6C8"/>
<path opacity="0.4" d="M323.245 213.968C322.55 213.62 322.202 213.62 321.508 213.273C336.791 213.968 343.39 214.662 349.295 215.356C349.99 215.703 351.032 215.703 351.727 216.05C346.169 215.356 340.612 215.009 323.245 213.968Z" fill="#73A6C8"/>
<path opacity="0.4" d="M644.537 530.824C650.789 573.859 660.515 639.104 629.602 732.808C643.495 684.915 660.515 625.222 644.537 530.824Z" fill="#73A6C8"/>
<path opacity="0.4" d="M592.094 698.795C592.441 697.754 592.788 697.06 592.788 696.713C607.724 710.595 619.534 721.354 624.396 741.482C624.049 742.177 623.702 742.871 623.354 743.912C619.186 730.03 616.06 720.312 592.094 698.795Z" fill="#73A6C8"/>
<path opacity="0.4" d="M586.883 490.912C587.23 490.912 587.578 490.912 587.925 491.259C600.082 553.728 603.208 597.457 590.009 677.279C589.662 677.279 589.314 677.279 588.967 676.932C599.387 607.174 601.124 565.875 586.883 490.912Z" fill="#73A6C8"/>
<path opacity="0.4" d="M591.746 480.5C591.746 479.459 591.398 478.765 591.398 478.418C618.838 491.606 628.564 497.506 639.331 511.041C639.679 511.735 639.679 512.776 640.026 513.47C629.953 501.67 623.006 495.424 591.746 480.5Z" fill="#73A6C8"/>
<path opacity="0.4" d="M642.803 525.27C643.151 525.964 659.476 589.821 594.175 683.525C594.175 682.831 593.828 682.137 593.828 681.79C615.711 647.432 649.055 596.068 642.803 525.27Z" fill="#73A6C8"/>
<path opacity="0.4" d="M245.79 201.818C238.843 201.818 232.938 202.165 229.117 202.165C234.675 201.818 240.232 201.818 245.79 201.818Z" fill="#73A6C8"/>
<path opacity="0.4" d="M110.331 226.111C103.384 228.888 97.1316 231.317 95.7422 232.358C97.8262 232.011 123.182 222.294 123.877 221.6C122.487 221.947 116.583 224.029 110.331 226.111Z" fill="#73A6C8"/>
<path opacity="0.4" d="M42.5948 323.286C46.0682 318.427 51.973 312.874 57.8778 312.527C64.8246 312.527 61.0039 322.245 54.7518 328.492C47.8049 335.433 39.8161 335.78 39.4688 330.921C39.4688 328.145 41.5528 325.021 42.5948 323.286Z" fill="#73A6C8"/>
<path opacity="0.4" d="M164.512 222.988C169.375 220.559 174.933 218.477 177.364 218.477C177.711 218.477 178.753 218.477 177.364 219.865C172.849 224.029 158.26 230.623 158.608 227.847C158.608 226.806 160.692 225.071 164.512 222.988Z" fill="#73A6C8"/>
<path opacity="0.4" d="M110.333 571.429C110.68 562.059 116.585 555.812 125.616 555.465C141.941 555.465 144.372 575.247 135.341 583.576C127.005 591.905 109.638 587.741 110.333 571.429Z" fill="#73A6C8"/>
<path opacity="0.4" d="M206.199 284.766C206.546 283.031 208.978 276.784 217.314 276.09C226.692 276.09 227.734 286.154 222.871 291.36C217.314 296.913 205.852 295.525 205.852 287.195C205.852 286.848 205.852 285.807 206.199 284.766Z" fill="#73A6C8"/>
<path opacity="0.4" d="M245.789 201.818C247.178 201.818 247.873 201.818 247.873 202.165C247.873 202.165 247.526 202.165 247.178 202.165C246.484 201.818 246.136 201.818 245.789 201.818Z" fill="#73A6C8"/>
<path opacity="0.4" d="M291.297 379.854C291.297 374.648 294.423 369.095 303.107 368.748C317.347 369.095 321.863 384.365 314.916 390.959C307.969 397.553 291.297 393.736 291.297 379.854Z" fill="#73A6C8"/>
<path opacity="0.4" d="M261.771 209.105C260.729 208.064 259.687 206.676 261.076 206.676C264.202 206.676 271.496 211.187 270.107 212.576C269.065 212.923 265.591 212.576 261.771 209.105Z" fill="#73A6C8"/>
<path opacity="0.4" d="M394.109 586.351C394.109 576.981 399.667 570.734 408.003 570.387C423.981 570.734 426.412 592.251 417.729 599.539C409.74 606.827 394.457 602.663 394.109 586.351Z" fill="#73A6C8"/>
<path opacity="0.4" d="M344.087 260.47C343.045 259.082 339.919 253.876 345.129 253.529C353.812 253.876 364.58 265.676 361.106 268.8C358.328 271.229 349.297 268.453 344.087 260.47Z" fill="#73A6C8"/>
<path opacity="0.4" d="M519.492 562.405C519.492 554.076 523.313 548.523 529.218 548.176C541.027 548.176 545.195 570.04 537.554 577.675C531.302 583.922 519.84 578.716 519.492 562.405Z" fill="#73A6C8"/>
<path opacity="0.4" d="M468.788 354.173C465.315 346.885 467.052 343.762 470.873 343.762C479.903 343.762 493.102 361.808 487.892 366.667C484.419 369.791 474.346 365.279 468.788 354.173Z" fill="#73A6C8"/>
<path opacity="0.4" d="M317.347 213.621C310.053 211.192 308.316 210.497 307.969 210.15C311.095 210.15 331.588 216.05 331.588 217.438C330.546 217.786 323.252 215.703 317.347 213.621Z" fill="#73A6C8"/>
<path opacity="0.4" d="M578.198 690.814C579.587 684.22 583.061 677.279 588.618 676.932C597.302 677.279 595.218 698.449 587.924 705.737C583.756 709.902 577.503 708.86 577.503 698.102C577.156 697.755 577.503 694.978 578.198 690.814Z" fill="#73A6C8"/>
<path opacity="0.4" d="M576.111 474.601C574.722 468.701 574.722 462.107 579.238 461.76C587.226 461.76 596.257 484.665 590.7 490.218C587.574 493.688 579.585 488.483 576.111 474.601Z" fill="#73A6C8"/>
<path opacity="0.4" d="M464.963 276.781C460.448 273.311 455.585 269.146 457.321 268.799C461.837 269.146 483.025 284.763 481.288 286.498C480.941 287.54 476.773 286.151 464.963 276.781Z" fill="#73A6C8"/>
<path opacity="0.4" d="M350.69 215.698C345.827 214.31 340.964 213.269 336.102 211.881C342.354 212.922 361.11 218.128 366.32 220.21C365.973 220.21 365.973 220.21 364.236 219.516C357.289 217.434 355.205 217.087 350.69 215.698Z" fill="#73A6C8"/>
<path opacity="0.4" d="M640.378 515.552C638.989 509.305 637.252 501.323 637.6 500.629C638.989 501.67 645.241 529.087 644.894 531.516C644.199 530.822 641.768 521.452 640.378 515.552Z" fill="#73A6C8"/>
<path opacity="0.4" d="M577.504 373.608C574.726 369.79 572.294 366.32 569.516 362.502L574.031 368.402L587.23 387.49C584.104 382.978 580.978 378.119 577.504 373.608Z" fill="#73A6C8"/>
<path d="M537.9 320.854C537.205 320.16 536.511 319.466 535.816 318.772C535.121 318.077 534.426 317.383 534.079 317.036C506.292 291.702 454.191 244.155 358.672 215.697C424.319 239.644 475.726 259.079 537.9 320.854Z" fill="#73A6C8"/>
<path d="M559.797 344.454C559.102 343.76 558.755 343.066 558.06 342.372C554.934 339.248 550.419 334.737 546.945 331.613C547.64 332.307 547.987 333.001 548.682 333.349C551.808 337.166 556.671 340.984 559.797 344.454Z" fill="#73A6C8"/>
<path d="M626.827 510.693C627.175 511.04 627.522 511.734 627.522 512.081C625.438 478.07 622.312 431.218 580.978 372.566C580.284 371.525 579.242 370.137 578.547 369.096C598.345 398.595 625.091 439.547 626.827 510.693Z" fill="#73A6C8"/>
<path d="M359.016 228.54C359.711 228.887 360.058 229.234 360.753 229.234C362.49 225.069 362.837 223.681 360.058 219.864C357.974 217.087 353.112 214.658 349.291 212.923C348.596 212.576 347.554 212.576 346.859 212.229C352.764 215.005 355.89 216.393 358.322 219.864C360.753 223.334 360.058 225.764 359.016 228.54C359.016 228.193 359.016 228.193 359.016 228.54Z" fill="#73A6C8"/>
<path d="M532.004 318.424C490.671 280.249 446.211 244.155 360.07 215.697C414.95 235.132 465.662 256.302 532.004 318.424Z" fill="#73A6C8"/>
<path d="M535.816 323.634C535.469 323.287 496.914 283.723 367.703 233.748C372.913 237.913 381.944 239.995 388.196 242.424C476.074 277.477 517.755 309.752 535.816 323.634Z" fill="#73A6C8"/>
<path d="M541.031 888.632C597.301 827.898 622.309 783.475 644.192 706.43C644.886 703.306 645.581 700.53 646.276 697.406C635.161 739.747 616.404 810.545 541.031 888.632Z" fill="#73A6C8"/>
<path d="M655.997 598.148C655.997 597.107 655.997 596.066 655.997 595.025C653.565 575.59 651.828 558.584 632.725 530.82C632.725 531.514 632.377 532.556 632.725 533.25C634.461 538.455 639.324 544.355 642.103 548.867C642.798 549.561 655.302 570.037 655.997 598.148Z" fill="#73A6C8"/>
<path d="M597.297 652.987C597.644 653.334 597.644 653.681 597.992 654.028C610.843 621.405 623 590.171 626.821 538.113C626.474 537.419 626.126 537.419 625.779 536.725C622.653 569.347 619.179 600.235 597.297 652.987C597.297 652.64 597.297 652.64 597.297 652.987Z" fill="#73A6C8"/>
<path d="M600.078 662.701C600.078 663.742 600.078 664.783 600.078 665.13C635.16 649.166 653.569 637.713 656.347 619.319C656.347 618.278 656.347 617.584 656.347 616.543C653.221 629.731 647.664 641.184 600.078 662.701C600.078 662.354 600.078 662.354 600.078 662.701Z" fill="#73A6C8"/>
<path d="M526.792 403.109C527.139 403.456 527.486 404.15 527.834 404.844C547.98 380.898 557.01 362.504 546.243 335.087C545.548 334.393 545.201 334.046 544.506 333.352C552.495 355.91 551.8 372.221 526.792 403.109C526.444 403.109 526.444 402.762 526.792 403.109Z" fill="#73A6C8"/>
<path d="M625.09 508.61C625.437 508.61 625.437 508.957 625.785 509.304C618.143 467.658 607.376 410.742 552.843 340.637L552.148 339.943C576.81 373.954 610.849 420.112 625.09 508.61C624.743 508.61 624.743 508.61 625.09 508.61Z" fill="#73A6C8"/>
<path d="M620.928 515.203C620.928 511.733 596.614 471.822 532.703 417.682C532.703 418.029 532.703 418.723 532.703 419.07C565.701 448.569 594.183 474.598 620.928 515.203Z" fill="#73A6C8"/>
<path d="M537.898 890.368C538.593 889.674 609.798 824.776 594.515 680.402C594.168 680.749 593.82 681.096 593.82 681.096C598.336 749.813 597.641 812.629 537.898 890.368Z" fill="#73A6C8"/>
<path d="M248.57 198.348C250.654 198.695 254.128 198.348 254.128 198.348C253.78 198.348 253.433 198.348 253.433 198.348H250.654C251.002 198.348 251.349 198.348 251.696 198.348C250.654 198.695 249.612 198.348 248.57 198.348Z" fill="#73A6C8"/>
<path d="M342.349 211.187C332.624 208.411 285.038 201.47 249.609 198.693C332.624 209.452 332.624 209.452 342.349 211.187Z" fill="#73A6C8"/>
<path d="M336.447 209.105C337.141 209.105 337.489 209.452 338.183 209.452C315.606 204.246 306.228 201.817 272.536 199.04L269.062 198.693C297.892 201.47 307.617 202.164 336.447 209.105Z" fill="#73A6C8"/>
<path d="M590.702 651.25C591.049 651.25 591.396 650.903 591.744 650.903C589.312 605.44 585.839 529.435 529.917 422.891C529.57 422.891 529.222 423.238 528.875 423.238C558.052 482.583 586.881 549.217 590.702 651.25Z" fill="#73A6C8"/>
<path d="M512.555 795.623C512.555 795.623 512.902 795.97 512.902 796.318C535.132 767.859 558.056 738.707 585.844 681.791C585.496 681.096 585.149 681.096 584.802 680.402C566.74 716.496 553.194 742.872 512.555 795.623Z" fill="#73A6C8"/>
<path d="M500.739 797.355C501.086 797.008 501.433 796.661 501.781 796.314C497.265 769.244 485.456 697.058 391.326 563.096C390.632 563.443 389.937 564.137 389.242 564.831C437.523 635.282 488.234 717.881 500.739 797.355Z" fill="#73A6C8"/>
<path d="M584.098 662.357C584.098 661.663 584.446 660.968 584.793 660.274C542.07 625.569 487.19 595.376 395.84 555.465C395.84 556.159 395.492 556.853 395.492 557.547C474.686 594.682 531.997 621.405 584.098 662.357Z" fill="#73A6C8"/>
<path d="M296.509 382.63C297.204 382.63 297.898 382.63 298.593 382.63C292.688 351.742 274.627 256.997 255.523 211.533C254.828 211.533 254.828 211.533 254.828 211.533C259.691 224.374 274.627 263.591 296.509 382.63Z" fill="#73A6C8"/>
<path d="M350 227.499C346.874 225.069 282.269 203.552 251.008 198.693C269.764 202.858 293.036 207.717 350 227.499Z" fill="#73A6C8"/>
<path d="M352.784 229.237C351.395 228.196 351.048 228.196 337.849 225.42C311.104 219.52 284.011 214.314 257.266 208.414C257.266 208.414 257.266 208.761 257.613 209.108C289.221 216.049 321.176 222.296 352.784 229.237Z" fill="#73A6C8"/>
<path d="M513.931 396.167C514.279 396.167 514.626 396.167 514.626 395.82C479.545 334.392 441.337 283.722 369.438 236.523C417.718 270.534 461.483 305.587 513.931 396.167Z" fill="#73A6C8"/>
<path d="M307.961 385.754C308.308 386.102 309.003 386.449 309.35 386.796C356.241 334.044 395.144 279.557 363.536 235.481C363.188 235.134 362.493 234.787 361.799 234.787C381.945 266.022 380.555 303.85 307.961 385.754Z" fill="#73A6C8"/>
<path d="M392.714 540.888C393.061 541.582 393.408 541.929 393.756 542.624C448.636 500.63 490.664 463.496 518.451 418.379C517.756 417.685 517.409 417.338 516.714 416.297C496.916 446.49 472.602 478.766 392.714 540.888C392.366 540.888 392.366 540.541 392.714 540.888Z" fill="#73A6C8"/>
<path d="M513.245 410.049C512.897 409.355 512.55 408.314 512.203 407.619C471.564 404.496 425.715 401.373 313.523 395.473C313.523 396.167 313.523 397.208 313.523 397.902C362.846 400.331 444.818 404.496 513.245 410.049Z" fill="#73A6C8"/>
<path d="M288.507 386.797C288.855 386.45 289.202 386.103 289.549 385.756C214.871 314.61 199.588 300.034 181.526 268.105C181.179 268.453 180.832 268.8 180.484 268.8C200.978 305.24 227.723 331.616 288.507 386.797Z" fill="#73A6C8"/>
<path d="M285.733 394.778C285.733 394.084 285.733 393.39 285.733 392.696C195.771 378.12 154.785 371.526 91.2217 358.338C90.8744 359.032 90.527 359.726 90.1797 360.42C155.48 373.608 193.687 379.855 285.733 394.778Z" fill="#73A6C8"/>
<path d="M318.039 699.838C318.734 700.185 319.428 700.185 319.776 700.532C342.353 652.986 355.552 623.486 376.74 566.223C375.698 565.876 375.35 565.876 374.308 565.182C357.289 610.992 347.563 636.327 318.039 699.838Z" fill="#73A6C8"/>
<path d="M372.92 536.376C373.268 536.029 373.962 535.682 374.657 535.682C358.679 501.671 350.69 484.665 307.967 407.967C307.62 408.314 306.925 408.314 306.578 408.661C360.763 511.735 360.763 511.735 372.92 536.376Z" fill="#73A6C8"/>
<path d="M73.5078 546.095C73.8552 546.442 73.8551 546.789 74.2025 547.136C145.407 498.896 218.349 452.738 289.554 404.498C289.207 403.804 288.512 403.11 288.165 402.416C216.265 450.309 142.629 495.079 73.5078 546.095Z" fill="#73A6C8"/>
<path d="M75.5781 554.769C75.5781 555.116 75.5781 555.81 75.5781 556.504C111.007 556.851 111.007 556.851 365.955 552.687C365.955 551.992 365.955 550.951 365.955 549.91C269.047 551.298 172.486 552.687 75.5781 554.769Z" fill="#73A6C8"/>
<path d="M233.287 198.695C232.592 198.695 231.898 198.695 231.203 198.695C236.761 198.695 242.665 198.695 248.223 198.348C247.876 198.348 247.875 198.348 247.528 198.348C243.013 198.695 238.15 198.695 233.287 198.695Z" fill="#73A6C8"/>
<path d="M90.5294 346.189C90.8767 346.536 91.224 346.883 91.224 346.883C121.443 316.342 135.336 302.46 170.071 270.184C169.723 269.837 169.376 269.837 169.028 269.49C143.325 293.437 120.748 314.607 90.5294 346.189Z" fill="#73A6C8"/>
<path d="M297.893 707.819C298.241 707.125 298.935 706.083 299.283 705.389C132.211 605.092 132.211 605.091 73.8581 563.445C73.5108 564.139 72.8161 565.181 72.4688 565.875C128.391 605.091 128.391 605.091 297.893 707.819Z" fill="#73A6C8"/>
<path d="M254.134 204.941C254.134 204.941 254.481 204.941 254.481 205.288C254.481 204.247 254.134 202.512 254.134 201.47C253.439 200.776 252.05 199.735 251.355 199.041H251.008C252.05 199.735 253.092 200.776 253.787 201.47C253.787 202.512 253.787 203.9 254.134 204.941Z" fill="#73A6C8"/>
<path d="M172.151 214.311C171.804 214.658 171.457 214.658 171.109 215.005C246.135 200.429 246.135 200.429 249.261 199.04V198.693C249.261 198.693 248.914 198.693 248.566 198.693V199.04C247.177 199.387 247.177 199.387 172.151 214.311Z" fill="#73A6C8"/>
<path d="M186.406 256.306C186.406 256.653 186.754 257 186.754 257C229.824 229.236 241.634 220.213 251.706 210.495C251.359 210.495 251.359 210.148 251.012 210.148C241.633 218.825 235.729 224.378 186.406 256.306Z" fill="#73A6C8"/>
<path d="M172.503 258.387C172.85 258.04 173.198 257.693 173.892 257.346C163.819 245.2 153.747 233.053 163.819 218.477C162.083 219.171 156.178 222.988 159.304 238.258C160.346 242.77 164.861 249.364 172.503 258.387Z" fill="#73A6C8"/>
<path d="M170.772 215.352C170.425 215.352 169.73 215.699 169.383 215.699C189.876 213.964 249.271 208.411 249.966 208.411C249.966 208.064 249.966 208.064 249.966 207.717C223.568 210.146 197.17 212.576 170.772 215.352C170.772 215.005 170.772 215.005 170.772 215.352Z" fill="#73A6C8"/>
<path d="M-103.977 622.79C-103.977 623.484 -103.629 624.178 -103.629 624.872C-58.8222 601.273 -28.9509 588.085 48.1589 562.056C47.8115 561.015 47.8115 560.668 47.8115 559.279C-27.2142 584.961 -61.2536 599.19 -103.977 622.79Z" fill="#73A6C8"/>
<path d="M1.26051 746.342C1.60785 746.342 1.95519 746.689 2.30253 746.689C14.8068 682.831 22.7957 650.903 56.1404 571.428C55.4457 571.081 54.751 570.734 54.0564 570.387C19.6696 651.944 10.2914 689.078 1.26051 746.342C0.913165 746.342 0.913165 746.342 1.26051 746.342Z" fill="#73A6C8"/>
<path d="M59.6157 540.192C59.963 540.192 60.6577 539.845 61.3524 539.845C62.0471 465.229 63.4365 433.3 78.3721 369.096C77.6774 369.096 76.9828 369.443 76.6354 369.443C64.1311 424.277 58.921 460.37 59.6157 540.192Z" fill="#73A6C8"/>
<path d="M49.5474 548.525C50.242 547.484 50.242 547.137 50.9367 546.096C8.5611 511.737 -25.8257 481.891 -51.8763 439.551C-52.5709 440.592 -52.5709 440.592 -53.2656 441.633C-33.8145 471.48 -15.0581 496.467 49.5474 548.525Z" fill="#73A6C8"/>
<path d="M170.062 212.922C170.757 212.922 171.105 212.575 171.799 212.575C179.788 209.798 190.208 205.287 198.544 203.204C205.839 201.469 215.564 200.428 223.206 199.387C192.64 201.816 175.62 210.145 170.062 212.922Z" fill="#73A6C8"/>
<path d="M81.4922 345.845C81.8395 345.845 82.5342 345.498 82.8815 345.498C91.2177 305.587 101.985 256.306 157.56 220.906C157.213 220.559 98.8592 242.771 81.4922 345.845Z" fill="#73A6C8"/>
<path d="M79.7566 238.954C79.4092 239.301 78.7145 239.648 78.3672 239.648C98.8603 233.054 115.185 228.195 158.256 217.784C158.603 217.437 159.298 217.09 159.645 217.09C117.269 227.154 101.292 232.013 79.7566 238.954C80.1039 238.954 80.1039 238.954 79.7566 238.954Z" fill="#73A6C8"/>
<path d="M-46.6683 425.664C-46.6683 426.011 -46.6683 426.705 -47.0156 427.399C-18.881 410.394 9.94831 393.041 68.9963 363.889C68.9963 363.195 68.9963 362.848 68.9963 361.807C36.3462 378.118 -3.94532 398.247 -46.6683 425.664C-46.6683 425.317 -46.6683 425.317 -46.6683 425.664Z" fill="#73A6C8"/>
<path d="M73.8632 351.399C74.5579 350.705 74.9053 350.358 75.5999 349.664C42.6025 309.753 31.1403 279.906 68.6531 245.201C68.3058 245.201 41.9079 260.818 43.6446 293.441C44.6866 316.347 63.0957 338.211 73.8632 351.399Z" fill="#73A6C8"/>
<path d="M-55.6953 420.112C-55.348 419.765 -54.6533 419.418 -53.9586 419.418C-43.8857 377.425 -27.2134 306.626 62.0533 247.975C61.0113 248.322 -28.95 293.091 -55.6953 420.112Z" fill="#73A6C8"/>
<path d="M235.367 198.348C232.588 198.348 231.199 198.348 230.852 198.695C236.062 198.348 236.062 198.348 238.146 198.348C237.104 198.348 236.409 198.348 235.367 198.348Z" fill="#73A6C8"/>
<path d="M157.565 207.718C124.22 216.047 106.853 221.253 78.0234 237.565C89.1384 232.706 99.2112 226.112 110.673 221.947C129.777 215.006 135.335 213.271 161.038 207.371C159.649 207.371 158.607 207.718 157.565 207.718Z" fill="#73A6C8"/>
<path d="M85.6634 235.48C85.3161 235.48 85.3161 235.827 84.9688 235.827C119.703 221.598 158.952 205.634 219.042 199.387C219.39 199.387 219.737 199.387 220.084 199.387C186.74 203.551 148.532 208.063 85.6634 235.48Z" fill="#73A6C8"/>
<path d="M74.2068 235.828C72.8174 236.522 71.0807 237.564 70.3861 238.952C70.0387 239.646 70.3861 240.687 70.7334 241.381C71.4281 241.034 72.1228 240.687 73.1648 240.34C72.8175 239.646 72.8175 237.911 73.1648 237.216C73.8595 236.175 75.5962 235.481 76.9855 234.787C75.9435 235.134 75.2488 235.481 74.2068 235.828Z" fill="#73A6C8"/>
<path d="M-57.7855 334.045C-57.7855 334.392 -58.1328 334.392 -58.1328 334.739C-31.7349 309.404 -1.86354 280.252 59.2685 248.323C59.6158 247.976 59.6158 247.976 59.9632 247.629C27.6604 265.329 -12.6311 287.54 -57.7855 334.045Z" fill="#73A6C8"/>
<path d="M541.376 329.534C547.975 336.822 552.491 340.987 553.533 340.64C554.227 338.557 535.471 318.428 532.345 317.734C531.65 318.776 534.776 322.593 541.376 329.534Z" fill="#73A6C8"/>
<path d="M344.44 211.534C360.07 215.699 360.07 215.699 360.07 215.699C359.028 214.311 334.02 208.064 329.852 207.717C330.199 207.717 330.199 207.717 334.02 208.758C336.104 209.452 340.272 210.493 344.44 211.534Z" fill="#73A6C8"/>
<path d="M622.312 525.963C625.09 537.415 629.258 542.274 631.69 538.804C635.163 533.598 629.953 508.263 623.701 507.916C619.88 508.61 620.575 518.328 622.312 525.963Z" fill="#73A6C8"/>
<path d="M583.064 669.297C582.369 681.444 588.274 686.303 593.831 681.444C601.473 674.503 602.862 651.251 593.484 650.557C587.926 650.904 583.758 658.539 583.064 669.297Z" fill="#73A6C8"/>
<path d="M512.906 409.7C518.811 423.582 529.578 427.053 532.01 420.459C534.441 413.518 525.758 396.512 515.685 395.818C510.822 395.818 509.433 401.718 512.906 409.7Z" fill="#73A6C8"/>
<path d="M355.193 230.969C365.266 236.869 370.129 237.563 369.781 236.175C369.434 233.398 353.456 224.722 347.899 224.375C347.204 224.375 346.162 224.375 348.593 226.457C349.983 227.846 352.414 229.234 355.193 230.969Z" fill="#73A6C8"/>
<path d="M365.969 550.954C367.011 567.612 384.378 571.083 392.019 562.754C398.966 555.119 396.882 535.337 380.21 534.643C371.179 534.99 365.621 541.584 365.969 550.954Z" fill="#73A6C8"/>
<path d="M247.865 198.347C248.56 198.347 249.255 198.694 250.297 198.694C251.339 199.041 252.381 199.041 252.381 199.041C252.033 198.694 249.255 198 245.781 198C246.129 198.347 246.823 198.347 247.865 198.347Z" fill="#73A6C8"/>
<path d="M296.154 714.76C295.806 730.724 313.173 733.848 322.204 726.213C330.888 718.577 329.151 700.184 313.868 699.143C313.521 699.143 312.826 699.143 312.479 699.143C301.016 699.837 296.501 707.819 296.154 714.76Z" fill="#73A6C8"/>
<path d="M286.092 396.86C287.829 410.742 305.196 412.824 311.448 405.189C317.006 398.595 313.532 383.325 298.944 382.631C289.913 382.631 285.05 388.531 286.092 396.86Z" fill="#73A6C8"/>
<path d="M249.96 207.717C250.307 209.8 252.391 211.535 254.823 211.535C258.296 211.535 258.296 208.411 255.865 206.329C255.17 205.982 253.781 204.594 252.044 204.594C249.265 204.594 249.96 207.37 249.96 207.717Z" fill="#73A6C8"/>
<path d="M169.031 263.59C165.905 270.531 172.157 272.266 177.715 270.531C185.356 267.754 189.872 257.343 184.662 254.913C183.619 254.566 182.925 254.566 181.883 254.566C175.631 254.219 171.115 259.078 169.031 263.59Z" fill="#73A6C8"/>
<path d="M47.7968 556.85C47.1022 572.814 62.0378 576.632 70.374 568.997C78.3629 561.709 79.0576 540.886 62.7325 540.191C55.7857 540.191 48.1442 545.397 47.7968 556.85Z" fill="#73A6C8"/>
<path d="M70.0427 357.644C65.8746 368.403 74.2108 371.873 81.8523 368.403C91.9252 363.891 96.7879 348.274 89.1464 345.497C88.1044 345.15 87.0624 345.15 86.3677 345.15C79.4209 344.803 72.8214 350.356 70.0427 357.644Z" fill="#73A6C8"/>
<path d="M162.086 216.045C156.181 218.821 153.749 220.557 155.139 220.904C157.57 221.598 176.674 213.268 176.674 211.533H176.327C173.895 211.533 167.643 213.616 162.086 216.045Z" fill="#73A6C8"/>
<path d="M231.195 198.695C223.901 199.042 218.69 199.736 217.648 199.736C227.027 199.389 236.058 198.348 245.436 198.348C240.92 198.348 236.058 198.348 231.195 198.695Z" fill="#73A6C8"/>
<path d="M69.3343 242.075C64.8189 244.505 59.2614 247.628 58.9141 248.669C60.3034 249.363 84.9646 236.522 86.0067 234.787C86.0067 234.787 86.0067 234.787 85.6593 234.787C83.9226 234.787 76.6285 238.258 69.3343 242.075Z" fill="#73A6C8"/>
<path d="M157.578 207.718C158.62 207.371 159.662 207.371 161.052 207.024C187.102 202.165 198.912 200.083 231.214 198.348C196.48 200.083 170.082 205.289 157.578 207.718Z" fill="#73A6C8"/>
<path d="M74.2188 235.829C74.9134 235.482 75.9555 235.135 76.6502 234.788C81.5129 233.053 87.7651 230.624 112.774 226.459C112.079 226.806 111.384 227.153 110.69 227.5C108.258 228.194 105.132 228.541 102.701 228.888C100.617 229.235 82.2076 232.359 74.2188 235.829Z" fill="#73A6C8"/>
<path d="M-51.8672 326.411C-51.1725 325.716 -50.1305 324.675 -49.4358 323.981C-29.6374 305.24 11.6962 265.677 105.478 230.277C99.2262 234.095 89.5006 236.871 82.5538 239.648C64.1447 247.283 35.3154 261.512 20.0324 271.229C-17.4804 294.135 -35.5422 309.058 -51.8672 326.411Z" fill="#73A6C8"/>
<path d="M125.628 221.599C125.281 221.599 124.933 221.946 124.586 221.946C154.805 209.452 174.256 202.511 226.704 198.693C227.052 198.693 227.746 198.693 228.094 198.693C192.665 201.817 167.309 203.899 125.628 221.599Z" fill="#73A6C8"/>
<path d="M118.336 226.805C120.42 225.764 121.809 225.417 188.151 222.641C187.804 222.988 187.804 223.335 187.457 223.335C164.185 224.723 141.26 225.417 118.336 226.805Z" fill="#73A6C8"/>
<path d="M-11.5866 329.185C-11.9339 329.185 -11.9339 329.185 -12.2812 329.185C11.3379 300.727 40.5146 265.327 103.036 232.357H103.731C70.7333 251.098 33.5678 271.921 -11.5866 329.185Z" fill="#73A6C8"/>
<path d="M99.5763 321.549C99.2289 321.896 98.8816 322.243 98.1869 322.59C86.7246 302.114 65.5368 263.939 108.954 230.622C109.649 230.275 110.344 229.928 111.039 229.928C94.7135 243.463 67.6209 266.021 99.5763 321.549C99.5763 321.202 99.5763 321.202 99.5763 321.549Z" fill="#73A6C8"/>
<path d="M-14.3516 340.985C-14.0042 340.638 -13.6569 339.944 -13.3095 339.597C2.32081 337.515 16.9091 335.432 93.6715 329.186C93.3242 330.227 93.3242 330.227 92.9768 330.921C34.2762 335.78 15.1724 337.515 -14.3516 340.985Z" fill="#73A6C8"/>
<path d="M30.1119 720.314C29.7645 720.314 29.4172 720.661 29.0699 720.661C19.3443 693.591 -1.14882 637.716 -10.1797 556.159C-9.48501 556.159 -8.79033 555.812 -8.09565 555.465C-2.88553 593.293 3.71395 645.351 30.1119 720.314Z" fill="#73A6C8"/>
<path d="M-3.93517 525.269C-4.62985 524.922 -5.32453 524.575 -5.67188 524.575C21.0734 458.983 42.9559 414.907 94.7097 340.291C95.057 340.291 95.4044 340.638 95.4044 340.638C53.3761 404.496 29.7569 441.977 -3.93517 525.269Z" fill="#73A6C8"/>
<path d="M219.064 574.552C218.716 574.899 218.369 574.899 218.022 575.246C121.808 431.219 108.957 364.585 104.094 339.598C104.788 339.251 105.483 338.904 106.178 338.557C118.682 397.555 137.091 443.019 219.064 574.552Z" fill="#73A6C8"/>
<path d="M210.724 585.31C210.724 586.005 210.376 587.046 210.376 587.74C139.171 574.552 69.3559 561.017 0.929688 544.358C1.27703 543.664 1.27703 542.623 1.62437 541.582C37.7479 550.258 87.0703 562.058 210.724 585.31C211.071 585.31 211.071 584.963 210.724 585.31Z" fill="#73A6C8"/>
<path d="M111.386 318.427C111.038 318.427 110.691 318.08 110.344 318.08C125.974 295.174 149.246 260.122 185.717 228.193H186.064C167.308 246.587 145.425 267.063 111.386 318.427Z" fill="#73A6C8"/>
<path d="M114.508 327.451C114.508 326.757 114.855 326.063 114.855 325.716C167.304 313.916 220.447 303.157 272.895 291.357C272.895 291.704 273.243 292.399 273.59 293.093C220.447 304.545 167.304 315.304 114.508 327.451Z" fill="#73A6C8"/>
<path d="M45.0498 727.603C44.7025 727.256 44.3552 726.562 44.0078 725.868C63.8063 707.474 100.972 673.463 212.468 597.459C212.816 598.153 213.163 598.847 213.51 599.194C81.1733 694.98 81.1733 694.98 45.0498 727.603Z" fill="#73A6C8"/>
<path d="M273.592 284.07C273.592 284.417 273.244 284.764 273.244 285.111C222.532 256.306 205.165 243.465 193.703 226.46C194.05 226.113 194.398 225.766 195.092 225.766C207.249 243.465 223.922 254.918 273.592 284.07Z" fill="#73A6C8"/>
<path d="M190.581 220.558C190.234 220.905 189.886 220.905 189.539 221.252C183.982 217.087 169.393 205.981 208.99 200.429C218.021 199.04 227.746 198.693 233.651 198.693C234.346 198.693 235.388 198.693 236.083 198.693C192.318 200.429 175.993 207.023 188.15 218.475C188.844 219.169 189.886 219.863 190.581 220.558Z" fill="#73A6C8"/>
<path d="M199.266 220.905C199.266 220.558 199.613 220.211 199.613 220.211C203.434 218.823 208.297 217.435 212.117 216.047C244.073 205.982 252.756 202.859 253.798 199.388C252.756 198.694 251.019 198.347 249.63 198C253.104 198.347 253.104 198.347 254.493 199.735C252.409 203.553 247.199 206.329 199.266 220.905Z" fill="#73A6C8"/>
<path d="M494.498 282.333C494.151 281.986 493.109 281.292 492.414 280.598C493.109 281.292 493.803 281.639 494.498 282.333Z" fill="#73A6C8"/>
<path d="M285.744 280.945C285.05 280.597 284.702 280.597 284.008 280.25C288.176 253.875 295.817 204.94 253.789 198.693C274.977 201.123 297.554 217.087 285.744 280.945Z" fill="#73A6C8"/>
<path d="M232.263 573.511C231.568 573.164 230.526 573.164 229.484 572.817C265.261 413.867 277.07 360.421 281.586 299.688C281.933 299.688 282.628 300.035 282.975 300.035C278.807 362.851 269.776 403.456 232.263 573.511Z" fill="#73A6C8"/>
<path d="M239.905 577.674C239.558 577.327 238.863 576.633 238.516 576.286C352.791 449.265 352.791 449.265 384.746 400.678C385.094 401.025 385.788 401.372 386.136 401.719C355.917 449.959 326.046 486.052 239.905 577.674Z" fill="#73A6C8"/>
<path d="M253.094 740.441C252.4 740.441 251.705 740.788 251.01 740.788C239.548 676.237 229.475 613.073 228.086 606.132C229.475 606.132 229.823 606.132 230.865 605.785C238.506 650.555 246.148 695.671 253.094 740.441C253.442 740.441 253.442 740.441 253.094 740.441Z" fill="#73A6C8"/>
<path d="M485.82 604.053C485.82 604.401 485.82 605.095 485.82 605.442C405.237 603.012 324.653 596.071 244.07 591.56C244.07 589.824 244.07 589.824 244.07 588.783C356.956 595.03 413.573 598.501 485.82 604.053Z" fill="#73A6C8"/>
<path d="M269.081 749.115C268.734 748.421 268.386 747.727 268.039 747.033C365.989 693.587 426.427 658.188 486.864 613.418C487.211 614.112 487.559 615.153 487.906 615.847C432.679 655.758 388.219 684.216 269.081 749.115Z" fill="#73A6C8"/>
<path d="M381.265 380.55C380.918 380.897 380.571 381.244 380.223 381.938C350.352 353.827 320.481 326.41 290.609 298.299C291.304 297.952 291.304 297.605 291.651 297.258C321.523 325.022 351.741 352.439 381.265 380.55Z" fill="#73A6C8"/>
<path d="M288.538 282.683C287.843 282.336 287.843 281.989 287.148 281.642C302.084 253.183 311.81 229.931 292.359 210.496C296.179 211.884 305.21 222.296 304.515 236.525C303.473 252.142 298.611 263.942 288.538 282.683Z" fill="#73A6C8"/>
<path d="M293.05 289.273C293.05 288.926 292.703 288.232 292.703 287.885C378.496 271.227 378.496 271.227 397.947 265.674C398.295 266.021 398.642 266.368 398.989 266.715C389.959 269.838 368.771 276.432 293.05 289.273Z" fill="#73A6C8"/>
<path d="M528.544 353.131C528.197 353.131 527.849 353.131 527.502 353.131C483.39 292.397 441.709 250.751 357.305 217.781C423.994 244.157 473.664 275.045 528.544 353.131Z" fill="#73A6C8"/>
<path d="M536.877 359.031C536.182 358.337 535.488 357.99 535.14 357.296C533.404 353.825 534.098 347.925 533.751 343.761C532.709 332.308 526.109 313.22 500.406 288.232C510.826 295.868 534.793 318.773 536.877 359.031Z" fill="#73A6C8"/>
<path d="M402.11 260.122C401.415 259.775 400.72 259.428 400.373 259.081C397.594 256.652 396.552 251.793 394.815 248.67C386.479 233.052 362.513 221.6 350.703 216.047C359.734 218.823 376.406 229.235 378.838 231.317C393.773 243.811 394.121 244.505 402.11 260.122Z" fill="#73A6C8"/>
<path d="M392.039 258.042V258.389C354.526 236.872 334.033 225.766 297.214 210.843L296.867 210.496C331.601 224.725 353.136 235.484 392.039 258.042Z" fill="#73A6C8"/>
<path d="M489.643 763.001C489.296 763.001 488.601 763.001 487.906 763.001C494.853 719.967 499.716 689.079 497.979 622.792C499.021 622.792 499.021 622.792 500.063 622.445C500.758 666.868 501.105 701.573 489.643 763.001Z" fill="#73A6C8"/>
<path d="M336.816 211.189C337.511 211.189 337.858 211.536 338.553 211.536C323.964 208.412 284.715 200.777 251.37 198.348C251.023 198.348 250.675 198.348 250.328 198.348C284.368 200.777 323.617 208.759 336.816 211.189C336.469 211.189 336.469 211.189 336.816 211.189Z" fill="#73A6C8"/>
<path d="M280.535 204.941C272.893 202.859 262.473 200.429 254.832 199.041H254.484C262.126 200.082 272.546 202.512 280.535 204.941C280.188 204.941 280.188 204.941 280.535 204.941Z" fill="#73A6C8"/>
<path d="M339.944 212.228C340.639 212.576 340.639 212.576 342.029 212.923C332.998 211.881 321.535 210.84 293.053 208.411C292.706 208.064 292.011 208.064 291.664 207.717C303.474 208.758 323.272 210.493 339.944 212.228Z" fill="#73A6C8"/>
<path d="M525.415 355.216C525.415 355.563 525.415 355.563 525.415 355.91C498.67 333.351 465.672 304.893 414.266 272.617C414.266 272.27 414.266 271.923 414.266 271.576C439.622 287.888 481.65 314.958 525.415 355.216Z" fill="#73A6C8"/>
<path d="M397.248 381.591C396.553 380.897 396.206 380.897 395.164 380.203C405.932 351.398 420.867 312.181 405.237 271.576C405.584 271.923 429.203 303.852 397.248 381.591Z" fill="#73A6C8"/>
<path d="M510.488 605.093C510.488 603.705 510.488 603.358 510.141 602.317C550.78 593.988 560.505 591.905 589.334 584.617C589.334 586.005 589.334 586.352 589.682 587.394C560.852 594.682 551.474 597.111 510.488 605.093Z" fill="#73A6C8"/>
<path d="M493.812 590.171C493.465 590.171 493.117 590.518 492.77 590.518C468.109 529.437 451.784 489.179 398.641 404.151C399.335 403.804 399.683 403.457 400.377 403.457C433.027 455.862 464.635 509.655 493.812 590.171Z" fill="#73A6C8"/>
<path d="M403.499 390.96C403.499 390.613 403.152 389.919 402.805 389.225C509.786 371.178 509.786 371.178 529.932 365.973C530.279 366.667 530.974 367.361 531.321 368.055C508.744 373.608 480.262 380.202 403.499 390.96Z" fill="#73A6C8"/>
<path d="M505.971 592.597C505.624 592.25 504.929 591.555 504.234 591.208C538.968 511.039 555.641 449.958 538.274 375.689C538.621 376.037 574.05 439.2 505.971 592.597Z" fill="#73A6C8"/>
<path d="M475.743 268.8L485.816 275.741C481.3 272.617 476.785 269.147 471.922 266.023C472.964 267.065 474.353 268.106 475.743 268.8Z" fill="#73A6C8"/>
<path d="M485.124 276.087C485.471 276.434 485.818 276.781 486.166 277.128C444.485 250.752 417.392 236.176 355.913 216.741C355.565 216.741 354.871 216.394 354.523 216.047C411.487 234.094 439.622 246.934 485.124 276.087Z" fill="#73A6C8"/>
<path d="M622.318 479.459C622.318 479.806 622.318 480.5 622.318 480.847C603.214 446.836 590.362 424.277 546.25 376.384C546.25 376.037 546.25 375.343 546.25 374.996C577.163 409.354 596.267 431.218 622.318 479.459Z" fill="#73A6C8"/>
<path d="M597.661 567.264C597.314 567.264 596.966 567.264 596.619 567.264C591.756 518.33 585.852 457.249 542.781 378.121C543.129 378.121 543.476 378.121 543.823 378.121C563.969 416.991 591.409 469.743 597.661 567.264Z" fill="#73A6C8"/>
<path d="M495.886 766.472C495.538 766.125 495.191 765.431 494.844 765.084C534.441 714.414 566.743 669.644 592.794 596.764C593.141 597.111 593.489 597.805 593.836 598.499C578.553 638.757 561.186 684.568 495.886 766.472Z" fill="#73A6C8"/>
<path d="M603.917 574.897C603.57 573.855 603.57 573.508 602.875 572.814C617.811 542.968 622.326 532.903 627.189 500.975C627.536 500.975 632.746 519.021 603.917 574.897Z" fill="#73A6C8"/>
<path d="M626.147 701.917C625.8 702.264 625.452 702.611 625.452 702.958C623.021 673.112 620.937 644.654 602.875 597.802C603.222 597.108 603.57 597.108 603.917 596.066C614.685 627.995 625.105 657.842 626.147 701.917C626.147 701.57 626.147 701.57 626.147 701.917Z" fill="#73A6C8"/>
<path d="M512.566 296.91L505.272 291.01C504.925 290.663 504.577 290.316 503.883 289.969L509.44 294.48C510.83 295.522 511.524 296.216 512.566 296.91Z" fill="#73A6C8"/>
<path d="M625.107 478.068C617.813 472.515 618.161 457.592 615.382 448.568C607.393 423.581 581.342 357.988 506.664 292.742C551.471 333.347 597.32 381.24 625.107 478.068Z" fill="#73A6C8"/>
<path d="M622.671 446.142C628.923 466.618 629.27 467.659 629.617 485.706C629.27 485.011 628.923 484.317 628.575 483.623C627.881 479.112 628.228 472.865 627.881 468.353C627.533 460.718 623.713 450.653 621.281 443.365C621.976 444.406 622.323 445.101 622.671 446.142Z" fill="#73A6C8"/>
<path d="M313.544 203.898C322.228 205.633 335.427 208.062 343.416 212.227C339.248 211.186 335.774 209.104 331.606 208.062C327.438 207.021 321.186 205.286 310.766 203.551C311.46 203.551 312.502 203.898 313.544 203.898Z" fill="#73A6C8"/>
<path d="M362.859 215.353C359.385 214.659 356.259 214.312 347.228 213.618C346.534 213.271 345.492 213.271 344.797 212.924C353.48 213.618 356.606 213.965 360.08 214.659C361.122 214.659 361.817 215.006 362.859 215.353Z" fill="#73A6C8"/>
<path d="M629.969 699.489C642.82 628.69 646.988 589.127 631.705 508.264C644.557 571.427 647.683 616.197 629.969 699.489Z" fill="#73A6C8"/>
<path d="M645.25 514.164C640.387 504.447 640.387 504.099 633.093 497.506C632.746 496.811 632.746 495.77 632.398 495.076C641.777 504.794 642.124 505.141 644.555 511.735C644.903 512.429 644.903 513.123 645.25 514.164Z" fill="#73A6C8"/>
<path d="M656.021 620.361C651.852 656.801 649.768 666.518 631.359 705.388C631.359 704.694 631.359 704 631.359 703.306C633.096 696.712 638.306 688.73 641.085 682.483C641.085 682.136 654.284 654.025 656.021 616.543C656.021 617.931 656.021 618.972 656.021 620.361Z" fill="#73A6C8"/>
<path d="M240.251 198.348C233.999 198.348 229.831 198.695 224.273 199.042C224.273 199.042 232.957 198.348 246.156 198.348C244.072 198.348 241.988 198.348 240.251 198.348Z" fill="#73A6C8"/>
<path d="M118.681 226.459C108.608 230.971 103.398 233.053 102.703 232.359C102.703 230.277 124.933 221.253 129.101 220.906C129.101 220.906 129.101 220.906 129.448 220.906C128.754 221.6 127.712 222.294 118.681 226.459Z" fill="#73A6C8"/>
<path d="M1.61736 540.192C-0.119343 556.504 -14.013 560.321 -19.9178 552.339C-26.1699 544.357 -21.6545 524.575 -8.80287 523.881C-2.55073 524.228 3.00673 529.087 1.61736 540.192Z" fill="#73A6C8"/>
<path d="M113.126 330.575C107.568 342.028 94.7164 343.416 92.2851 337.169C90.201 331.616 97.4952 318.428 108.61 317.734C114.862 318.081 116.946 323.287 113.126 330.575Z" fill="#73A6C8"/>
<path d="M197.532 222.988C191.628 228.888 184.681 229.235 185.028 226.806C185.375 223.682 193.712 217.783 198.922 217.436C201.701 217.783 199.964 220.559 197.532 222.988Z" fill="#73A6C8"/>
<path d="M244.064 589.474C243.717 606.48 223.918 609.95 215.235 601.274C206.204 592.251 209.677 573.163 227.392 572.469C235.381 572.816 244.064 578.022 244.064 589.474Z" fill="#73A6C8"/>
<path d="M293.388 291.011C294.778 300.728 282.968 302.463 276.716 297.257C270.116 292.052 271.158 281.293 280.189 280.252C280.537 280.252 280.884 280.252 281.231 280.252C287.483 280.252 292.346 284.764 293.388 291.011Z" fill="#73A6C8"/>
<path d="M248.24 198.348C252.06 198.348 254.492 198.695 254.492 199.042C254.492 199.042 254.492 199.042 253.45 199.042C252.06 199.042 251.018 198.695 249.629 198.695C247.892 198.695 246.503 198.695 245.461 198.695C246.503 198.348 247.545 198.348 248.24 198.348Z" fill="#73A6C8"/>
<path d="M403.85 392.35C406.281 403.803 395.513 407.968 386.483 402.068C377.452 396.168 375.368 380.898 385.44 378.468C386.483 378.121 387.525 378.121 388.219 378.121C395.513 378.468 402.113 384.368 403.85 392.35Z" fill="#73A6C8"/>
<path d="M291.654 207.717C296.169 209.8 297.559 210.841 296.864 211.188C296.517 211.188 295.127 211.535 289.917 209.452C289.917 209.452 280.539 205.288 280.539 204.594C280.539 204.594 280.539 204.594 280.886 204.594C282.623 204.594 287.486 205.982 291.654 207.717Z" fill="#73A6C8"/>
<path d="M510.484 607.868C509.789 616.891 504.926 622.791 498.327 622.791C484.086 622.097 483.044 598.844 491.033 591.903C494.159 589.127 496.937 589.127 497.979 589.127C505.968 589.474 511.178 597.456 510.484 607.868Z" fill="#73A6C8"/>
<path d="M410.104 266.021C415.314 271.227 415.314 274.004 412.188 274.004C405.588 274.004 389.263 260.122 392.042 257.345C392.389 256.998 393.084 256.998 393.431 256.998C398.294 256.998 405.588 261.857 410.104 266.021Z" fill="#73A6C8"/>
<path d="M605.654 585.655C605.654 598.496 599.402 603.355 594.539 598.843C587.245 591.902 587.245 567.609 596.623 567.262C601.833 567.262 605.654 575.244 605.654 585.655Z" fill="#73A6C8"/>
<path d="M542.776 367.014C547.639 375.343 546.597 379.161 542.776 378.12C535.134 376.385 521.588 355.909 526.104 353.132C526.451 352.785 526.798 352.785 527.146 352.785C531.314 353.132 537.913 359.032 542.776 367.014Z" fill="#73A6C8"/>
<path d="M345.837 212.922C351.742 214.658 356.952 216.393 357.994 217.434C355.91 217.434 330.554 209.452 329.859 208.758C330.901 209.105 338.196 210.84 345.837 212.922Z" fill="#73A6C8"/>
<path d="M629.609 715.454C626.136 727.948 621.62 732.112 619.883 729.683C617.105 725.171 623.357 699.837 629.262 699.143C632.04 699.49 632.04 706.084 629.609 715.454Z" fill="#73A6C8"/>
<path d="M632.048 492.996C635.174 503.755 634.479 509.655 632.048 507.919C626.838 504.796 619.544 478.42 623.712 477.379C623.712 477.379 623.712 477.379 624.059 477.379C626.143 477.379 629.269 483.973 632.048 492.996Z" fill="#73A6C8"/>
<path d="M496.932 284.413C501.1 287.537 507.352 292.743 507.352 293.09C506.31 292.743 482.691 274.696 482.344 274.002C483.733 274.349 489.985 278.861 496.932 284.413Z" fill="#73A6C8"/>
</g>
</g>
</g>
<defs>
<clipPath id="clip0_3640_1067">
<rect width="1920" height="700" fill="white"/>
</clipPath>
</defs>
</svg>
