<svg width="596" height="167" viewBox="0 0 596 167" fill="none" xmlns="http://www.w3.org/2000/svg">
<g clip-path="url(#clip0_3699_388)">
<path d="M156.5 164.9L128.5 133.9L137.3 126L172.5 164.9H156.5Z" fill="#CEA25A"/>
<path d="M107.5 166.8H0V0H166.8V105.5H138.8V132.3L107.5 166.8ZM11.9 155H102.2L126.9 127.7V105.5H104.8V93.6H155V11.9H11.9V155Z" fill="#CEA25A"/>
<path d="M85.6023 65.3008H30.4023V77.2008H85.6023V65.3008Z" fill="#CEA25A"/>
<path d="M95.0016 93.5H21.1016V105.4H95.0016V93.5Z" fill="#CEA25A"/>
<path d="M58.0031 144.802C44.0031 144.802 32.7031 133.402 32.7031 119.402C32.7031 105.402 44.1031 94.1016 58.0031 94.1016C72.0031 94.1016 83.4031 105.502 83.4031 119.402C83.4031 133.402 72.0031 144.802 58.0031 144.802ZM58.0031 105.902C50.6031 105.902 44.5031 111.902 44.5031 119.402C44.5031 126.802 50.5031 132.902 58.0031 132.902C65.4031 132.902 71.5031 126.902 71.5031 119.402C71.5031 112.002 65.5031 105.902 58.0031 105.902Z" fill="#CEA25A"/>
<path d="M195.502 106.699H197.802L193.902 110.899L197.902 116.499H195.602L192.602 112.299L192.102 112.799V116.499H190.102V106.699H192.102V110.299L195.502 106.699Z" fill="#143D5B"/>
<path d="M203.502 116.6C202.902 116.6 202.302 116.5 201.702 116.3C201.202 116.1 200.702 115.7 200.302 115.3C199.902 114.9 199.602 114.4 199.402 113.7C199.202 113.1 199.102 112.4 199.102 111.6C199.102 110.8 199.202 110.1 199.402 109.4C199.602 108.8 199.902 108.3 200.302 107.8C200.702 107.4 201.102 107.1 201.702 106.8C202.202 106.6 202.802 106.5 203.502 106.5C204.102 106.5 204.802 106.6 205.302 106.8C205.802 107 206.302 107.4 206.702 107.8C207.102 108.2 207.402 108.8 207.602 109.4C207.802 110 207.902 110.8 207.902 111.6C207.902 112.4 207.802 113.1 207.602 113.7C207.402 114.3 207.102 114.8 206.702 115.3C206.302 115.7 205.802 116 205.302 116.3C204.702 116.5 204.102 116.6 203.502 116.6ZM203.502 108.2C203.102 108.2 202.702 108.3 202.402 108.5C202.102 108.7 201.802 108.9 201.602 109.2C201.402 109.5 201.202 109.9 201.102 110.3C201.002 110.7 200.902 111.2 200.902 111.7C200.902 112.2 201.002 112.7 201.102 113.1C201.202 113.5 201.402 113.9 201.602 114.2C201.802 114.5 202.102 114.7 202.402 114.9C202.702 115.1 203.002 115.1 203.402 115.1C203.802 115.1 204.102 115 204.502 114.9C204.802 114.7 205.102 114.5 205.302 114.2C205.502 113.9 205.702 113.6 205.802 113.1C205.902 112.7 206.002 112.3 206.002 111.7C206.002 111.2 205.902 110.8 205.902 110.3C205.802 109.9 205.602 109.5 205.402 109.2C205.202 108.9 204.902 108.6 204.602 108.5C204.202 108.3 203.902 108.2 203.502 108.2Z" fill="#143D5B"/>
<path d="M213.503 106.699C214.603 106.699 215.403 106.999 216.003 107.499C216.503 107.999 216.803 108.799 216.803 109.799C216.803 111.299 216.203 112.199 215.103 112.599L217.603 116.499H215.503L213.103 112.899H212.103V116.499H210.203V106.699H213.503ZM213.403 111.199C213.803 111.199 214.203 111.099 214.403 110.899C214.603 110.699 214.803 110.299 214.803 109.799C214.803 109.299 214.703 108.899 214.403 108.699C214.103 108.499 213.803 108.399 213.403 108.399H212.003V111.299H213.403V111.199Z" fill="#143D5B"/>
<path d="M221.102 114.799H225.702V116.499H219.102V106.699H225.402V108.299H221.002V110.599H225.202V112.199H221.002V114.799H221.102Z" fill="#143D5B"/>
<path d="M229.901 114.1L229.201 116.4H227.301L230.601 106.6H232.601L235.901 116.4H234.001L233.201 114.1H229.901ZM232.601 112.6L231.501 109.1L230.401 112.6H232.601Z" fill="#143D5B"/>
<path d="M197.601 126.8L195.701 132.2H194.001L192.101 126.8V132.2H190.301V122.4H192.201L194.801 130.1L197.401 122.4H199.301V132.2H197.501V126.8H197.601Z" fill="#143D5B"/>
<path d="M203.901 129.801L203.201 132.101H201.301L204.601 122.301H206.601L209.901 132.101H208.001L207.201 129.801H203.901ZM206.701 128.301L205.601 124.801L204.501 128.301H206.701Z" fill="#143D5B"/>
<path d="M215.103 122.4C216.203 122.4 217.003 122.7 217.603 123.2C218.103 123.7 218.403 124.5 218.403 125.5C218.403 127 217.803 127.9 216.703 128.3L219.203 132.2H217.003L214.603 128.6H213.603V132.2H211.703V122.4H215.103ZM215.003 126.9C215.403 126.9 215.803 126.8 216.003 126.6C216.203 126.4 216.403 126 216.403 125.5C216.403 125 216.303 124.6 216.003 124.4C215.703 124.2 215.403 124.1 215.003 124.1H213.603V127H215.003V126.9Z" fill="#143D5B"/>
<path d="M226.002 122.4H228.302L224.402 126.6L228.402 132.2H226.102L223.102 128L222.602 128.5V132.2H220.602V122.4H222.602V126L226.002 122.4Z" fill="#143D5B"/>
<path d="M232 130.5H236.6V132.2H230V122.4H236.3V124H232V126.3H236.2V127.9H232V130.5Z" fill="#143D5B"/>
<path d="M238.102 122.4H245.402V124H242.702V132.1H240.802V124H238.202V122.4H238.102Z" fill="#143D5B"/>
<path d="M247.301 132.2V122.4H249.201V132.2H247.301Z" fill="#143D5B"/>
<path d="M257.302 132.2L253.802 125.1V132.2H251.902V122.4H254.202L257.602 129.4V122.4H259.502V132.2H257.302Z" fill="#143D5B"/>
<path d="M261.801 127.301C261.801 126.601 261.901 126.001 262.101 125.401C262.301 124.801 262.601 124.301 263.001 123.801C263.401 123.301 263.901 123.001 264.501 122.701C265.101 122.401 265.801 122.301 266.601 122.301C267.201 122.301 267.701 122.401 268.201 122.601C268.701 122.801 269.201 123.001 269.601 123.401L268.501 124.801C268.201 124.601 267.901 124.401 267.601 124.201C267.201 124.001 266.901 124.001 266.501 124.001C266.001 124.001 265.601 124.101 265.301 124.301C265.001 124.501 264.701 124.701 264.501 125.001C264.301 125.301 264.101 125.701 264.001 126.101C263.901 126.501 263.801 127.001 263.801 127.401C263.801 127.901 263.901 128.301 264.001 128.701C264.101 129.101 264.301 129.501 264.501 129.801C264.701 130.101 265.001 130.401 265.301 130.501C265.601 130.701 266.101 130.801 266.501 130.801C267.101 130.801 267.601 130.701 268.101 130.501V128.001H265.701V126.401H270.001V131.101C269.801 131.301 269.501 131.501 269.201 131.601C268.901 131.801 268.601 131.901 268.301 132.001C268.001 132.101 267.701 132.201 267.401 132.201C267.101 132.301 266.801 132.301 266.501 132.301C265.701 132.301 265.001 132.201 264.401 131.901C263.801 131.601 263.301 131.301 262.901 130.801C262.501 130.401 262.201 129.801 262.001 129.201C261.901 128.601 261.801 128.001 261.801 127.301Z" fill="#143D5B"/>
<path d="M193.602 138C194.702 138 195.502 138.3 196.102 138.8C196.602 139.3 196.902 140.1 196.902 141.1C196.902 142.1 196.602 142.9 196.102 143.4C195.602 144 194.702 144.2 193.702 144.2H192.302V147.7H190.402V138H193.602ZM193.602 142.7C194.002 142.7 194.302 142.6 194.602 142.3C194.902 142.1 195.002 141.7 195.002 141.2C195.002 140.7 194.902 140.3 194.602 140.1C194.302 139.9 194.002 139.7 193.602 139.7H192.202V142.7H193.602Z" fill="#143D5B"/>
<path d="M202.402 138C203.502 138 204.302 138.3 204.902 138.8C205.402 139.3 205.702 140.1 205.702 141.1C205.702 142.6 205.102 143.5 204.002 143.9L206.502 147.8H204.402L202.002 144.2H201.002V147.8H199.102V138H202.402ZM202.402 142.5C202.802 142.5 203.202 142.4 203.402 142.2C203.602 142 203.802 141.6 203.802 141.1C203.802 140.6 203.702 140.2 203.402 140C203.102 139.8 202.802 139.7 202.402 139.7H201.002V142.6H202.402V142.5Z" fill="#143D5B"/>
<path d="M212.103 148C211.503 148 210.903 147.9 210.303 147.7C209.803 147.5 209.303 147.1 208.903 146.7C208.503 146.3 208.203 145.8 208.003 145.1C207.803 144.5 207.703 143.8 207.703 143C207.703 142.2 207.803 141.5 208.003 140.8C208.203 140.2 208.503 139.7 208.903 139.2C209.303 138.8 209.803 138.5 210.303 138.2C210.803 138 211.403 137.9 212.103 137.9C212.703 137.9 213.403 138 213.903 138.2C214.403 138.4 214.903 138.8 215.303 139.2C215.703 139.6 216.003 140.2 216.203 140.8C216.403 141.4 216.503 142.2 216.503 143C216.503 143.8 216.403 144.5 216.203 145.1C216.003 145.7 215.703 146.2 215.303 146.7C214.903 147.1 214.403 147.4 213.903 147.7C213.303 147.9 212.803 148 212.103 148ZM212.103 139.5C211.703 139.5 211.303 139.6 211.003 139.8C210.703 140 210.403 140.2 210.203 140.5C210.003 140.8 209.803 141.2 209.703 141.6C209.603 142 209.503 142.5 209.503 143C209.503 143.5 209.603 144 209.703 144.4C209.803 144.8 210.003 145.2 210.203 145.5C210.403 145.8 210.703 146 211.003 146.2C211.303 146.4 211.603 146.4 212.003 146.4C212.403 146.4 212.803 146.3 213.103 146.2C213.403 146 213.703 145.8 213.903 145.5C214.103 145.2 214.303 144.9 214.403 144.4C214.503 144 214.603 143.5 214.603 143C214.603 142.5 214.503 142 214.503 141.6C214.403 141.2 214.203 140.8 214.003 140.5C213.803 140.2 213.503 139.9 213.203 139.8C212.903 139.6 212.503 139.5 212.103 139.5Z" fill="#143D5B"/>
<path d="M226.101 142.4L224.201 147.8H222.501L220.601 142.4V147.8H218.801V138H220.701L223.301 145.7L225.901 138H227.801V147.8H226.001V142.4H226.101Z" fill="#143D5B"/>
<path d="M234.603 148C234.003 148 233.403 147.9 232.803 147.7C232.303 147.5 231.803 147.1 231.403 146.7C231.003 146.3 230.703 145.8 230.503 145.1C230.303 144.5 230.203 143.8 230.203 143C230.203 142.2 230.303 141.5 230.503 140.8C230.703 140.2 231.003 139.7 231.403 139.2C231.803 138.8 232.303 138.5 232.803 138.2C233.303 138 233.903 137.9 234.603 137.9C235.203 137.9 235.903 138 236.403 138.2C236.903 138.4 237.403 138.8 237.803 139.2C238.203 139.6 238.503 140.2 238.703 140.8C238.903 141.4 239.003 142.2 239.003 143C239.003 143.8 238.903 144.5 238.703 145.1C238.503 145.7 238.203 146.2 237.803 146.7C237.403 147.1 236.903 147.4 236.403 147.7C235.803 147.9 235.203 148 234.603 148ZM234.603 139.5C234.203 139.5 233.803 139.6 233.503 139.8C233.203 140 232.903 140.2 232.703 140.5C232.503 140.8 232.303 141.2 232.203 141.6C232.103 142 232.003 142.5 232.003 143C232.003 143.5 232.103 144 232.203 144.4C232.303 144.8 232.503 145.2 232.703 145.5C232.903 145.8 233.203 146 233.503 146.2C233.803 146.4 234.103 146.4 234.503 146.4C234.903 146.4 235.303 146.3 235.603 146.2C235.903 146 236.203 145.8 236.403 145.5C236.603 145.2 236.803 144.9 236.903 144.4C237.003 144 237.103 143.5 237.103 143C237.103 142.5 237.003 142 237.003 141.6C236.903 141.2 236.703 140.8 236.503 140.5C236.303 140.2 236.003 139.9 235.703 139.8C235.403 139.6 235.003 139.5 234.603 139.5Z" fill="#143D5B"/>
<path d="M240.402 138H247.702V139.7H245.002V147.8H243.002V139.7H240.402V138Z" fill="#143D5B"/>
<path d="M249.602 147.8V138H251.502V147.8H249.602Z" fill="#143D5B"/>
<path d="M258.302 148C257.702 148 257.102 147.9 256.502 147.7C256.002 147.5 255.502 147.1 255.102 146.7C254.702 146.3 254.402 145.8 254.202 145.1C254.002 144.5 253.902 143.8 253.902 143C253.902 142.2 254.002 141.5 254.202 140.8C254.402 140.2 254.702 139.7 255.102 139.2C255.502 138.8 255.902 138.5 256.502 138.2C257.002 138 257.602 137.9 258.302 137.9C258.902 137.9 259.602 138 260.102 138.2C260.602 138.4 261.102 138.8 261.502 139.2C261.902 139.6 262.202 140.2 262.402 140.8C262.602 141.4 262.702 142.2 262.702 143C262.702 143.8 262.602 144.5 262.402 145.1C262.202 145.7 261.902 146.2 261.502 146.7C261.102 147.1 260.602 147.4 260.102 147.7C259.502 147.9 258.902 148 258.302 148ZM258.302 139.5C257.902 139.5 257.502 139.6 257.202 139.8C256.902 140 256.602 140.2 256.402 140.5C256.202 140.8 256.002 141.2 256.002 141.6C255.902 142 255.802 142.5 255.802 143C255.802 143.5 255.902 144 256.002 144.4C256.102 144.8 256.302 145.2 256.502 145.5C256.702 145.8 257.002 146 257.302 146.2C257.602 146.4 257.902 146.4 258.302 146.4C258.702 146.4 259.002 146.3 259.402 146.2C259.702 146 260.002 145.8 260.202 145.5C260.402 145.2 260.602 144.9 260.702 144.4C260.802 144 260.902 143.5 260.902 143C260.902 142.5 260.802 142 260.802 141.6C260.702 141.2 260.502 140.8 260.302 140.5C260.102 140.2 259.802 139.9 259.502 139.8C259.002 139.6 258.702 139.5 258.302 139.5Z" fill="#143D5B"/>
<path d="M270.3 147.8L266.8 140.7V147.8H265V138H267.3L270.8 145V138H272.7V147.8H270.3Z" fill="#143D5B"/>
<path d="M190.301 163.499V153.699H192.201V163.499H190.301Z" fill="#143D5B"/>
<path d="M200.201 163.499L196.701 156.399V163.499H194.801V153.699H197.101L200.601 160.699V153.699H202.501V163.499H200.201Z" fill="#143D5B"/>
<path d="M205.4 161.101C205.9 161.401 206.3 161.701 206.6 161.801C206.9 162.001 207.3 162.001 207.7 162.001C208.2 162.001 208.5 161.901 208.8 161.701C209.1 161.501 209.2 161.201 209.2 160.801C209.2 160.401 209 160.201 208.8 160.001C208.5 159.801 208.1 159.601 207.6 159.401C207.2 159.201 206.8 159.101 206.5 158.901C206.2 158.701 205.9 158.501 205.6 158.201C205.3 158.001 205.1 157.701 205 157.401C204.9 157.101 204.8 156.701 204.8 156.401C204.8 156.001 204.9 155.601 205.1 155.301C205.3 155.001 205.5 154.701 205.8 154.501C206.1 154.301 206.4 154.101 206.9 154.001C207.3 153.901 207.8 153.801 208.3 153.801C208.8 153.801 209.3 153.901 209.8 154.101C210.3 154.301 210.8 154.601 211.2 154.801L210.3 156.201C209.9 155.901 209.6 155.701 209.2 155.601C208.9 155.501 208.5 155.401 208.2 155.401C207.7 155.401 207.3 155.501 207.1 155.701C206.9 155.901 206.8 156.101 206.8 156.401C206.8 156.601 206.8 156.801 206.9 156.901C207 157.101 207.1 157.201 207.3 157.301C207.5 157.401 207.6 157.501 207.9 157.601C208.1 157.701 208.4 157.801 208.6 157.901C209 158.101 209.4 158.201 209.7 158.401C210 158.601 210.3 158.801 210.5 159.001C210.7 159.201 210.9 159.501 211 159.801C211.1 160.101 211.2 160.501 211.2 160.801C211.2 161.201 211.1 161.601 211 161.901C210.8 162.301 210.6 162.501 210.3 162.801C210 163.101 209.6 163.301 209.2 163.401C208.8 163.501 208.2 163.601 207.7 163.601C207.2 163.601 206.6 163.501 206.1 163.301C205.6 163.101 205.1 162.801 204.5 162.401L205.4 161.101Z" fill="#143D5B"/>
<path d="M212.703 153.699H220.003V155.399H217.303V163.499H215.403V155.399H212.803V153.699H212.703Z" fill="#143D5B"/>
<path d="M221.902 163.499V153.699H223.802V163.499H221.902Z" fill="#143D5B"/>
<path d="M225.801 153.699H233.101V155.399H230.401V163.499H228.501V155.399H225.901V153.699H225.801Z" fill="#143D5B"/>
<path d="M238.7 163.599C238.2 163.599 237.7 163.499 237.3 163.399C236.8 163.199 236.5 162.999 236.1 162.699C235.8 162.399 235.5 161.999 235.3 161.399C235.1 160.899 235 160.299 235 159.599V153.699H237V159.799C237 160.599 237.2 161.199 237.5 161.499C237.8 161.799 238.2 161.999 238.8 161.999C239.3 161.999 239.7 161.799 240.1 161.499C240.4 161.199 240.6 160.599 240.6 159.799V153.699H242.6V159.599C242.6 160.299 242.5 160.899 242.3 161.399C242.1 161.899 241.8 162.299 241.5 162.699C241.2 162.999 240.8 163.199 240.3 163.399C239.7 163.599 239.2 163.599 238.7 163.599Z" fill="#143D5B"/>
<path d="M244.402 153.699H251.702V155.399H249.002V163.499H247.002V155.399H244.402V153.699Z" fill="#143D5B"/>
<path d="M255.5 161.899H260.1V163.499H253.5V153.699H259.8V155.399H255.4V157.699H259.6V159.299H255.4V161.899H255.5Z" fill="#143D5B"/>
<path d="M260.798 1.40039H219.898V11.0004H260.798V1.40039Z" fill="#143D5B"/>
<path d="M267.499 22.3008H212.699V31.9008H267.499V22.3008Z" fill="#143D5B"/>
<path d="M240.398 60.1992C229.898 60.1992 221.398 51.6992 221.398 41.1992C221.398 30.6992 229.898 22.1992 240.398 22.1992C250.898 22.1992 259.398 30.6992 259.398 41.1992C259.298 51.6992 250.798 60.1992 240.398 60.1992ZM240.398 31.8992C235.298 31.8992 231.098 36.0992 231.098 41.1992C231.098 46.2992 235.298 50.4992 240.398 50.4992C245.498 50.4992 249.698 46.2992 249.698 41.1992C249.698 36.0992 245.498 31.8992 240.398 31.8992Z" fill="#143D5B"/>
<path d="M289.699 1.40039H280.099V80.7004H244.899V55.0004H235.199V90.3004H289.699V12.3004V11.0004V1.40039Z" fill="#143D5B"/>
<path d="M304.199 1.40039V11.0004H345.099V35.4004H304.199V45.1004H354.699V1.40039H304.199Z" fill="#143D5B"/>
<path d="M298.401 1.40039H286.301V11.0004H298.401V1.40039Z" fill="#143D5B"/>
<path d="M574.199 88.0996C563.699 88.0996 555.199 79.5996 555.199 69.0996C555.199 58.5996 563.699 50.0996 574.199 50.0996C584.699 50.0996 593.199 58.5996 593.199 69.0996C593.199 79.5996 584.699 88.0996 574.199 88.0996ZM574.199 59.7996C569.099 59.7996 564.899 63.9996 564.899 69.0996C564.899 74.1996 569.099 78.3996 574.199 78.3996C579.299 78.3996 583.499 74.1996 583.499 69.0996C583.599 63.9996 579.399 59.7996 574.199 59.7996Z" fill="#143D5B"/>
<path d="M335.702 40.3008H326.102V64.8008H335.702V40.3008Z" fill="#143D5B"/>
<path d="M354.699 165.9H345.099V69.6H304.199V60H354.699V165.9Z" fill="#143D5B"/>
<path d="M407.102 66.8004H365.602V1.40039H407.102V66.8004ZM375.202 57.2004H397.502V11.0004H375.202V57.2004Z" fill="#143D5B"/>
<path d="M476.598 55.0004H466.898V11.0004H438.398V1.40039H476.598V55.0004Z" fill="#143D5B"/>
<path d="M488.001 23.8008H419.801V33.4008H488.001V23.8008Z" fill="#143D5B"/>
<path d="M492.6 55.0004L483 54.9004L483.2 1.40039H492.8L492.6 55.0004Z" fill="#143D5B"/>
<path d="M427.598 86.7004H417.898V1.40039H427.798L427.598 86.7004Z" fill="#143D5B"/>
<path d="M508.998 1.40039H499.398V55.0004H508.998V1.40039Z" fill="#143D5B"/>
<path d="M558.598 59.8004H519.898V1.40039H558.598V11.0004H529.498V50.1004H558.598V59.8004Z" fill="#143D5B"/>
<path d="M558.6 23.8008H527V33.4008H558.6V23.8008Z" fill="#143D5B"/>
<path d="M578.998 1.40039H569.398V55.0004H578.998V1.40039Z" fill="#143D5B"/>
<path d="M460.699 166.1C450.199 166.1 441.699 157.6 441.699 147.1C441.699 136.6 450.199 128.1 460.699 128.1C471.199 128.1 479.699 136.6 479.699 147.1C479.599 157.6 471.099 166.1 460.699 166.1ZM460.699 137.8C455.599 137.8 451.399 142 451.399 147.1C451.399 152.2 455.599 156.4 460.699 156.4C465.799 156.4 469.999 152.2 469.999 147.1C469.999 142 465.799 137.8 460.699 137.8Z" fill="#143D5B"/>
<path d="M539.098 125.199H438.398V134.799H539.098V125.199Z" fill="#143D5B"/>
<path d="M407 73.6992H365.5V83.2992H407V73.6992Z" fill="#143D5B"/>
<path d="M373.901 116.7L366.801 110.2L381.501 94V78.5H391.101V97.7L373.901 116.7Z" fill="#143D5B"/>
<path d="M389.836 92.536L382.723 98.9824L398.704 116.618L405.818 110.172L389.836 92.536Z" fill="#143D5B"/>
<path d="M547.299 90.5996H529.199V100.2H547.299V90.5996Z" fill="#143D5B"/>
<path d="M552.1 165.9H507.5V133.1H517.1V156.3H542.5V90.5996H552.1V165.9Z" fill="#143D5B"/>
<path d="M582.498 165.899C575.298 165.899 569.398 159.999 569.398 152.799C569.398 145.599 575.298 139.699 582.498 139.699C589.698 139.699 595.598 145.599 595.598 152.799C595.598 160.099 589.698 165.899 582.498 165.899ZM582.498 149.399C580.598 149.399 578.998 150.999 578.998 152.899C578.998 154.799 580.598 156.399 582.498 156.399C584.398 156.399 585.998 154.799 585.998 152.899C585.898 150.899 584.398 149.399 582.498 149.399Z" fill="#143D5B"/>
<path d="M465.397 67.6992H455.797V82.0992H465.397V67.6992Z" fill="#143D5B"/>
<path d="M482.998 73.5H438.398V83.1H482.998V73.5Z" fill="#143D5B"/>
<path d="M506.399 123.6C517.999 123.6 527.399 115 527.399 104.3C527.399 93.7 517.999 85 506.399 85C497.799 85 491.399 90.6 486.799 95.6L485.299 97.2L478.099 105.8C473.399 111.3 469.399 115.5 463.799 115.5C457.099 115.5 451.699 110.5 451.699 104.3C451.699 98.1 457.099 93.1 463.799 93.1C469.199 93.1 473.199 97.1 477.499 102.1L482.999 95.5C477.999 90.1 472.299 85 463.699 85C452.099 85 442.699 93.6 442.699 104.3C442.699 114.9 452.099 123.6 463.699 123.6C472.299 123.6 477.999 118.5 482.899 113.1L484.399 111.5L490.299 104.5L491.599 103C495.999 98 500.799 93.3 506.199 93.3C512.899 93.3 518.299 98.3 518.299 104.5C518.299 110.7 512.899 115.7 506.199 115.7C501.199 115.7 496.999 112.1 492.199 106.7L486.699 113.2C491.399 118 497.799 123.6 506.399 123.6Z" fill="#CEA25A"/>
<path d="M417.899 68.8008V156.301H379.299V131.201H369.699V165.901H427.499V68.8008H417.899Z" fill="#143D5B"/>
<path d="M198.9 14.6C198 14 197.2 13.3 196.4 12.5C195.6 11.7 194.9 10.7 194.4 9.7C193.9 10.8 193.2 11.7 192.3 12.6C191.5 13.5 190.6 14.2 189.7 14.8L188 13C188.8 12.5 189.4 12 190 11.4C190.6 10.8 191.1 10.2 191.6 9.5C192.1 8.8 192.4 8.1 192.6 7.4C192.8 6.6 192.9 5.9 192.9 5V1.5H195.7V5C195.7 6.7 196.1 8.1 196.9 9.4C197.7 10.7 198.9 11.8 200.4 12.8L198.9 14.6ZM204 6.8H206.7V9.1H204V18.7H201.2V0H204V6.8Z" fill="#143D5B"/>
<path d="M199.702 33.6C198.202 33.9 196.702 34.1 195.202 34.2C193.602 34.3 192.102 34.4 190.702 34.4H189.602V25.3H199.002V27.6H192.402V32.2C193.502 32.2 194.602 32.1 195.802 32.1C197.002 32 198.202 31.9 199.302 31.6L199.702 33.6ZM191.402 42.5V35.9H194.202V40.2H204.302V42.5H191.402ZM204.002 29.3H206.702V31.6H204.002V38H201.202V24H204.002V29.3Z" fill="#143D5B"/>
<path d="M198.902 48.8V57.3H189.602V48.9H192.402V50.9H196.202V48.8H198.902ZM192.202 66.7V58.7H195.002V60.5H202.202V58.7H205.002V66.7H192.202ZM196.102 55.1V53.1H192.302V55.1H196.102ZM202.202 62.7H195.002V64.4H202.202V62.7ZM202.202 51.9V48H205.002V57.8H202.202V54.1H199.702V51.8H202.202V51.9Z" fill="#143D5B"/>
<path d="M189.602 77.6C189.602 76.9 189.702 76.2 190.002 75.7C190.202 75.1 190.602 74.6 191.002 74.2C191.402 73.8 192.002 73.4 192.602 73.2C193.202 73 193.902 72.8 194.602 72.8C195.302 72.8 196.002 72.9 196.602 73.2C197.202 73.4 197.702 73.8 198.202 74.2C198.602 74.6 199.002 75.1 199.202 75.7C199.402 76.3 199.602 76.9 199.602 77.7C199.602 78.4 199.502 79.1 199.202 79.6C199.002 80.2 198.602 80.7 198.202 81.1C197.802 81.5 197.202 81.8 196.602 82.1C196.002 82.3 195.302 82.5 194.602 82.5C193.902 82.5 193.202 82.4 192.602 82.1C192.002 81.9 191.502 81.5 191.002 81.1C190.602 80.7 190.202 80.2 190.002 79.6C189.702 79 189.602 78.3 189.602 77.6ZM192.202 90.5V83.9H195.002V88.2H205.302V90.5H192.202ZM196.702 77.6C196.702 76.9 196.502 76.3 196.202 75.8C195.802 75.3 195.302 75.1 194.502 75.1C193.802 75.1 193.202 75.3 192.902 75.8C192.502 76.3 192.302 76.9 192.302 77.6C192.302 78.3 192.502 78.9 192.902 79.4C193.302 79.9 193.802 80.1 194.502 80.1C195.302 80.1 195.802 79.9 196.202 79.4C196.502 78.9 196.702 78.3 196.702 77.6ZM205.002 85.9H202.202V72H205.002V85.9Z" fill="#143D5B"/>
</g>
<defs>
<clipPath id="clip0_3699_388">
<rect width="595.6" height="166.8" fill="white"/>
</clipPath>
</defs>
</svg>
