<svg width="47" height="73" viewBox="0 0 47 73" fill="none" xmlns="http://www.w3.org/2000/svg">
<path fill-rule="evenodd" clip-rule="evenodd" d="M0 4V2H46.62V4H0ZM0 5V7H46.62V5H0ZM0 10V8H46.62V10H0ZM0 11V13H46.62V11H0ZM0 16V14H46.62V15.48H19.53V16H0ZM0 17V19H19.53V17H0ZM0 22V20H19.53V22H0ZM0 23V25H19.53V23H0ZM0 28V26H19.53V28H0ZM0 29V31H43.47V29H0ZM0 34V32H43.47V34H0ZM0 35V37H43.47V35H0ZM0 40V38H43.47V40H0ZM0 41V43H43.47V41H0ZM0 46V44H43.47V44.1H19.53V46H0ZM0 47V49H19.53V47H0ZM0 52V50H19.53V52H0ZM0 53V55H19.53V53H0ZM0 58V56H19.53V58H0ZM0 59V61H19.53V59H0ZM0 64V62H19.53V64H0ZM0 65V67H19.53V65H0ZM0 70V68H19.53V70H0ZM0 71V72.45H19.53V71H0ZM46.62 1H0V0H46.62V1Z" fill="white"/>
</svg>
