<svg width="56" height="73" viewBox="0 0 56 73" fill="none" xmlns="http://www.w3.org/2000/svg">
<path fill-rule="evenodd" clip-rule="evenodd" d="M32.7854 16C31.5655 14.6295 29.6416 14.04 27 14.04H19.53V16H0V14H52.6883C52.849 14.6455 52.9812 15.3122 53.0851 16H32.7854ZM19.53 17V19H0V17H19.53ZM19.53 22V20H0V22H19.53ZM19.53 23V25H0V23H19.53ZM19.53 28V26H0V28H19.53ZM31.5807 28H51.4967C51.8438 27.3714 52.1455 26.705 52.3993 26H33.4885C33.0305 26.8667 32.3951 27.5253 31.5807 28ZM50.8849 29H0V31H49.2236C49.8415 30.3896 50.3967 29.7233 50.8849 29ZM0 34V32H48.0935C47.1132 32.7777 46.011 33.4433 44.7997 34H0ZM0 35V37H48.1086C46.9251 36.2087 45.6157 35.539 44.1947 35H0ZM0 40V38H49.4582C50.2037 38.6115 50.8866 39.2791 51.5021 40H0ZM0 41V43H19.53V41.67H28.08C30.2598 41.67 31.9542 42.0947 33.1945 43H53.5122C53.1529 42.2992 52.7439 41.632 52.2879 41H0ZM0 46V44H19.53V46H0ZM0 47V49H19.53V47H0ZM0 52V50H19.53V52H0ZM0 53V55H19.53V53H0ZM0 58V56H19.53V58H0ZM0 59V61H53.4336C53.7229 60.3605 53.9801 59.6938 54.2046 59H0ZM0 64V62H52.9432C52.5709 62.7025 52.1562 63.3691 51.6997 64H0ZM0 65V67H48.9038C49.6351 66.3858 50.3062 65.7192 50.9159 65H0ZM0 70V68H47.5938C46.4889 68.7662 45.2701 69.4326 43.94 70H0ZM0 71V72.45H29.7C34.0356 72.45 37.8591 71.9688 41.1416 71H0ZM54.5006 58C54.6741 57.3552 54.8214 56.6886 54.9421 56H34.2939C33.5659 56.9589 32.5704 57.6169 31.2931 58H54.5006ZM55.0966 55H34.9045C35.1895 54.4144 35.4066 53.7489 35.5577 53H55.2906C55.2484 53.685 55.1836 54.3517 55.0966 55ZM35.7147 52H55.3359C55.3453 51.6805 55.35 51.3571 55.35 51.03C55.35 50.6825 55.3414 50.3391 55.3243 50H35.82L35.82 50.04C35.82 50.7406 35.7851 51.3935 35.7147 52ZM55.2483 49H35.7924C35.7525 48.2759 35.6691 47.6099 35.5412 47H54.9322C55.0724 47.6475 55.1782 48.3145 55.2483 49ZM35.2752 46H54.6841C54.4902 45.3088 54.2554 44.6418 53.9813 44H34.232C34.673 44.5591 35.0197 45.2239 35.2752 46ZM33.9085 25H52.7198C52.9001 24.3622 53.044 23.6957 53.1502 23H34.3102C34.2359 23.7432 34.1021 24.4083 33.9085 25ZM53.2747 22H34.3731C34.3777 21.8398 34.38 21.6765 34.38 21.51C34.38 20.9743 34.3561 20.4714 34.3082 20H53.37C53.3694 20.69 53.3373 21.3566 53.2747 22ZM34.1614 19H53.354C53.3314 18.3158 53.285 17.6491 53.2146 17H33.4779C33.7836 17.5728 34.0112 18.2371 34.1614 19ZM0 11V13H52.4116C52.1997 12.3068 51.9528 11.64 51.6708 11H0ZM51.1903 10H0V8H49.9514C50.4105 8.63081 50.8235 9.29763 51.1903 10ZM0 5V7H49.159C48.5381 6.27918 47.8488 5.61223 47.0911 5H0ZM45.719 4H0V2H41.7533C43.212 2.55419 44.534 3.22165 45.719 4ZM0 0V1H38.4744C35.6955 0.337122 32.5301 0 28.98 0H0Z" fill="white"/>
</svg>
