<svg width="61" height="75" viewBox="0 0 61 75" fill="none" xmlns="http://www.w3.org/2000/svg">
<path fill-rule="evenodd" clip-rule="evenodd" d="M6.14561 11C6.62549 10.3075 7.13836 9.6407 7.68586 9H53.7029C54.2559 9.63587 54.7741 10.3028 55.2569 11H6.14561ZM5.48657 12C5.08187 12.646 4.70334 13.3128 4.34978 14H57.0244C56.682 13.3103 56.3112 12.6434 55.9124 12H5.48657ZM3.01075 17C3.27369 16.3163 3.55631 15.6495 3.85954 15H57.4939C57.7812 15.6481 58.0449 16.3149 58.2846 17H36.1094C34.5871 16.0647 32.6691 15.57 30.33 15.57C28.1575 15.57 26.3988 16.0182 24.9257 17H3.01075ZM2.64432 18C2.41686 18.6521 2.20608 19.3188 2.01125 20H22.1368C22.2532 19.8076 22.3742 19.6211 22.5 19.44C22.8782 18.8997 23.2781 18.4207 23.7038 18H2.64432ZM1.27321 23C1.4152 22.3207 1.57034 21.654 1.73927 21H21.5995C21.3105 21.6073 21.0573 22.2697 20.8365 23H1.27321ZM1.07532 24C0.952733 24.6555 0.841692 25.3222 0.741666 26H20.1674C20.2819 25.2843 20.4139 24.6197 20.5648 24H1.07532ZM0.376213 29C0.442363 28.3233 0.517829 27.6566 0.603075 27H20.023C19.9413 27.629 19.871 28.2945 19.8111 29H0.376213ZM0.285785 30C0.231036 30.6576 0.184631 31.3243 0.146165 32H19.6274C19.6563 31.3015 19.692 30.6356 19.7351 30H0.285785ZM0.0275799 35C0.0432265 34.3251 0.0656729 33.6584 0.0952804 33H19.5914C19.5716 33.6403 19.5568 34.3065 19.5467 35H0.0275799ZM0.00940828 36C0.0030953 36.476 0 36.9561 0 37.44C0 37.6273 0.000450298 37.814 0.00135768 38H19.5308C19.5303 37.8151 19.53 37.6285 19.53 37.44C19.53 36.9479 19.5318 36.468 19.5355 36H0.00940828ZM0.0585344 41C0.036047 40.3419 0.0202355 39.6753 0.0107626 39H19.5363C19.5421 39.6927 19.552 40.3589 19.5664 41H0.0585344ZM0.0981873 42C0.128779 42.676 0.166792 43.3427 0.212608 44H19.6762C19.6423 43.3633 19.6147 42.6973 19.593 42H0.0981873ZM0.484531 47C0.410325 46.3436 0.345285 45.6769 0.288977 45H19.7364C19.784 45.7035 19.8404 46.3691 19.9065 47H0.484531ZM0.605745 48C0.693593 48.678 0.791782 49.3446 0.900813 50H20.3439C20.2217 49.377 20.1152 48.7122 20.0231 48H0.605745ZM1.49574 53C1.34351 52.346 1.20423 51.6793 1.0773 51H20.5622C20.7373 51.7236 20.9382 52.3866 21.1671 53H1.49574ZM1.74121 54C1.91724 54.6809 2.10823 55.3476 2.31487 56H22.7773C22.6836 55.8769 22.5912 55.7502 22.5 55.62C22.1613 55.1188 21.8573 54.5829 21.5852 54H1.74121ZM3.42073 59C3.14414 58.3498 2.88682 57.6831 2.64789 57H23.6437C24.5799 57.9425 25.642 58.5987 26.8769 59H3.42073ZM3.86749 60C4.18914 60.686 4.53394 61.3527 4.90299 62H56.5205C56.8781 61.355 57.2092 60.6881 57.5136 60H3.86749ZM6.89783 65C6.40158 64.3569 5.9369 63.6902 5.50232 63H55.9341C55.5038 63.6945 55.0408 64.3614 54.5454 65H6.89783ZM7.7115 66C7.78045 66.0804 7.84995 66.1604 7.92 66.24C8.46368 66.86 9.03466 67.4466 9.63261 68H51.7505C52.4508 67.3726 53.1086 66.7056 53.7232 66H7.7115ZM13.6728 71C12.6562 70.4016 11.694 69.735 10.787 69H50.5554C49.6202 69.7305 48.619 70.3979 47.5532 71H13.6728ZM15.5532 72C19.7048 73.986 24.6484 74.97 30.33 74.97C36.2481 74.97 41.3592 73.9429 45.593 72H15.5532ZM57.9311 59C58.1865 58.3509 58.4192 57.6841 58.6292 57H37.4784C36.5257 57.9077 35.3564 58.5833 33.9646 59H57.9311ZM58.9164 56H38.3712C38.8253 55.4024 39.2114 54.7342 39.5306 54H59.3809C59.2461 54.6813 59.0912 55.348 58.9164 56ZM39.9109 53H59.5626C59.6711 52.3459 59.7616 51.6792 59.8342 51H40.4069C40.283 51.7053 40.1179 52.3727 39.9109 53ZM59.9272 50H40.5521C40.6211 49.4066 40.6636 48.7895 40.68 48.15H60.03C60.0098 48.776 59.9755 49.3928 59.9272 50ZM59.8278 24C59.8989 24.6553 59.9531 25.322 59.9904 26H40.628C40.5741 25.3025 40.4893 24.6353 40.3728 24H59.8278ZM59.7052 23C59.612 22.3203 59.5001 21.6535 59.3697 21H39.4819C39.7527 21.6191 39.9772 22.2865 40.1565 23H59.7052ZM58.6134 18C58.8142 18.6512 58.9943 19.318 59.1535 20H38.9798C38.5447 19.2414 38.0246 18.5728 37.4167 18H58.6134ZM52.7793 8H8.58742C9.26902 7.285 9.99007 6.6184 10.75 6H50.5438C51.3366 6.62176 52.0821 7.28889 52.7793 8ZM49.1699 5C48.0633 4.25324 46.8764 3.58553 45.6111 3H15.4907C14.2836 3.58148 13.1437 4.248 12.0724 5H49.1699ZM43.1493 2H17.8577C21.4977 0.66335 25.6651 0 30.33 0C35.1514 0 39.4371 0.687771 43.1493 2Z" fill="white"/>
</svg>
