<svg width="66" height="73" viewBox="0 0 66 73" fill="none" xmlns="http://www.w3.org/2000/svg">
<path fill-rule="evenodd" clip-rule="evenodd" d="M22.86 0H42.48L42.7955 1H22.5445L22.86 0ZM22.2289 2H43.1111L43.7421 4H21.5979L22.2289 2ZM21.2824 5L20.6513 7H44.6887L44.0576 5H21.2824ZM19.7047 10L20.3358 8H45.0042L45.6353 10H19.7047ZM19.3892 11L18.7581 13H46.5819L45.9508 11H19.3892ZM17.8116 16L18.4426 14H46.8974L47.5285 16H17.8116ZM17.496 17L16.865 19H48.475L47.844 17H17.496ZM15.9184 22L16.5494 20H48.7906L49.4216 22H32.9084L32.67 21.06L32.4283 22H15.9184ZM15.6029 23L14.9718 25H31.6569L32.1711 23H15.6029ZM14.0252 28L14.6563 26H31.3997L30.8854 28H14.0252ZM13.7097 29L13.0786 31H30.114L30.6283 29H13.7097ZM12.132 34L12.7631 32H29.8569L29.3426 34H12.132ZM11.8165 35L11.1855 37H28.5711L29.0854 35H11.8165ZM10.2389 40L10.8699 38H28.314L27.7997 40H10.2389ZM9.92335 41L9.2923 43H27.0283L27.5426 41H9.92335ZM8.34571 46L8.97677 44H26.7711L26.2569 46H8.34571ZM8.03019 47L7.39913 49H57.9409L57.3098 47H8.03019ZM6.45255 52L7.0836 50H58.2564L58.8875 52H6.45255ZM6.13702 53L5.50596 55H59.834L59.203 53H6.13702ZM4.55938 58L5.19044 56H60.1496L60.7806 58H4.55938ZM4.24385 59L3.6128 61H22.4591L22.5 60.84H42.75L42.7909 61H61.7272L61.0961 59H4.24385ZM2.66621 64L3.29727 62H22.2033L21.6916 64H2.66621ZM2.35068 65L1.71963 67H20.9242L21.4358 65H2.35068ZM0.773045 70L1.4041 68H20.6684L20.1567 70H0.773045ZM0.457517 71L0 72.45H19.53L19.9009 71H0.457517ZM45.3491 71L45.72 72.45H65.34L64.8825 71H45.3491ZM64.567 70L63.9359 68H44.5816L45.0933 70H64.567ZM62.9893 65L63.6204 67H44.3258L43.8142 65H62.9893ZM62.6738 64L62.0427 62H43.0467L43.5584 64H62.6738ZM56.9943 46L56.3632 44H38.4869L38.9941 46H56.9943ZM56.0477 43H38.2334L37.7262 41H55.4166L56.0477 43ZM37.4726 40H55.1011L54.4701 38H36.9655L37.4726 40ZM54.1545 37H36.7119L36.2048 35H53.5235L54.1545 37ZM35.9512 34H53.2079L52.5769 32H35.4441L35.9512 34ZM52.2614 31H35.1905L34.6834 29H51.6303L52.2614 31ZM34.4298 28H51.3148L50.6837 26H33.9226L34.4298 28ZM50.3682 25H33.6691L33.1619 23H49.7371L50.3682 25Z" fill="white"/>
</svg>
