<svg width="58" height="73" viewBox="0 0 58 73" fill="none" xmlns="http://www.w3.org/2000/svg">
<path fill-rule="evenodd" clip-rule="evenodd" d="M28.26 72.45H0V71H39.6995C36.4414 71.9563 32.6515 72.45 28.26 72.45ZM42.5265 70H0V68H46.2851C45.1368 68.7615 43.8862 69.4291 42.5265 70ZM0 65V67H47.6672C48.45 66.3829 49.179 65.7159 49.8571 65H0ZM50.745 64H0V62H52.2248C51.7651 62.6997 51.2724 63.3666 50.745 64ZM0 59V61H52.8465C53.2238 60.3583 53.5762 59.6914 53.9048 59H0ZM54.3562 58H0V56H19.53V57.6H27.63C30.1565 57.6 32.1824 57.1877 33.7627 56H55.1311C54.8914 56.6864 54.6333 57.3532 54.3562 58ZM0 53V55H19.53V53H0ZM55.4631 55H34.8294C35.3094 54.4447 35.7363 53.7833 36.1124 53H56.0332C55.858 53.683 55.6682 54.3498 55.4631 55ZM56.2767 52C56.4273 51.3473 56.5655 50.6806 56.6917 50H37.1601C36.9762 50.7301 36.7696 51.3951 36.5397 52H56.2767ZM19.53 52V50H0V52H19.53ZM0 47V49H19.53V47H0ZM56.8669 49H37.3895C37.5194 48.3763 37.6354 47.7105 37.7379 47H57.1605C57.0728 47.6788 56.975 48.3455 56.8669 49ZM57.2816 46C57.3558 45.344 57.4211 44.6773 57.478 44H38.0692C38.012 44.7002 37.9455 45.3664 37.8696 46H57.2816ZM19.53 46V44H0V46H19.53ZM0 41V43H19.53V41H0ZM57.5553 43H38.143C38.1854 42.3602 38.2209 41.6938 38.2494 41H57.6725C57.6408 41.6762 57.6018 42.3429 57.5553 43ZM57.7139 40C57.7375 39.342 57.7547 38.6752 57.7656 38H38.3285C38.3194 38.6895 38.3051 39.356 38.2853 40H57.7139ZM19.53 40V38H0V40H19.53ZM0 35V37H19.53V35H0ZM57.7771 37H38.3377C38.3392 36.7301 38.34 36.4567 38.34 36.18C38.34 35.7795 38.3383 35.3862 38.3349 35H57.7739C57.778 35.3907 57.78 35.784 57.78 36.18C57.78 36.4547 57.7791 36.728 57.7771 37ZM57.7588 34C57.7454 33.325 57.7255 32.6582 57.6988 32H38.2686C38.2922 32.6433 38.31 33.3097 38.3219 34H57.7588ZM19.53 34V32H0V34H19.53ZM0 29V31H19.53V29H0ZM57.6526 31H38.2261C38.1926 30.305 38.1515 29.6387 38.103 29H57.5245C57.575 29.6573 57.6176 30.324 57.6526 31ZM57.4409 28C57.3797 27.3228 57.3096 26.6561 57.2303 26H37.7935C37.8787 26.6321 37.9537 27.2982 38.0188 28H57.4409ZM19.53 28V26H0V28H19.53ZM0 23V25H19.53V23H0ZM57.1012 25H37.6459C37.5309 24.2868 37.4014 23.6211 37.2574 23H56.7892C56.9039 23.6546 57.0077 24.3214 57.1012 25ZM56.6036 22C56.47 21.3195 56.324 20.6527 56.1649 20H36.3104C36.5654 20.5996 36.7959 21.2642 37.0021 22H56.6036ZM19.53 22V20H0V22H19.53ZM0 17V19H19.53V17H0ZM55.9079 19H35.8307C35.3958 18.1969 34.9033 17.5376 34.3522 17H55.3068C55.5229 17.6501 55.723 18.3169 55.9079 19ZM54.9569 16C54.7043 15.3134 54.4324 14.6465 54.1405 14H0V16H19.53V14.85H27.63C29.7583 14.85 31.5568 15.1415 33.0366 16H54.9569ZM0 11V13H53.6648C53.3182 12.308 52.9464 11.6411 52.5484 11H0ZM51.8915 10H0V8H50.3232C50.8823 8.63205 51.4044 9.29902 51.8915 10ZM0 5V7H49.3781C48.6518 6.28084 47.87 5.61363 47.0295 5H0ZM45.5294 4H0V2H41.3299C42.8549 2.55588 44.2518 3.22405 45.5294 4ZM0 0V1H37.9392C35.0972 0.340257 31.8841 0 28.26 0H0Z" fill="white"/>
</svg>
